<?xml version="1.0" encoding="utf-8"?>
<!-- Generator: Adobe Illustrator 23.0.1, SVG Export Plug-In . SVG Version: 6.00 Build 0)  -->
<svg version="1.1" id="Illustration" xmlns="http://www.w3.org/2000/svg" xmlns:xlink="http://www.w3.org/1999/xlink" x="0px"
	 y="0px" viewBox="0 0 1045.9 1402.2" style="enable-background:new 0 0 1045.9 1402.2;" xml:space="preserve">
<style type="text/css">
	.st0{fill:#FFB37C;}
	.st1{fill:#FFA585;}
	.st2{fill:#A38582;}
	.st3{fill:#E49F8C;}
	.st4{fill:#1C2836;}
	.st5{fill:#C9988E;}
	.st6{fill:#25313E;}
	.st7{fill:#303B48;}
	.st8{fill:#293542;}
	.st9{fill:#3A5161;}
	.st10{clip-path:url(#SVGID_2_);}
	.st11{fill:#2C3744;}
	.st12{opacity:0.7;}
	.st13{fill:#FF8A5A;}
	.st14{opacity:0.48;}
	.st15{fill:#FFFFFF;}
	.st16{fill:#070C19;}
	.st17{fill:#F46640;}
	.st18{fill:#FF784C;}
	.st19{fill:#ED7858;}
	.st20{fill:#FC8768;}
	.st21{fill:#E57253;}
	.st22{fill:#020714;}
	.st23{fill:#0C101E;}
	.st24{fill:#0F1320;}
</style>
<g id="Layer3">
</g>
<g>
	<polygon class="st0" points="-146.7,852 1192,852 1092,1247.1 -46.7,1247.1 	"/>
	<path class="st1" d="M-146.7,724.3c0,0,377.3-54,669.4-54c305.8,0,669.4,54,669.4,54V852c0,0-501.3,60-669.4,60s-669.4-60-669.4-60
		V724.3z"/>
	<path class="st2" d="M608.4,958.6c0,0-21.7-20.6-34.9-33.1c-6.2-5.9-14.8-8.6-23.3-7.2c-0.1,0-0.2,0-0.4,0.1
		c-12.2,1.9-24.2-4.4-29.4-15.6c-4.8-10.2-10.7-23-15.9-34.1c-2.8-6-8.2-10.3-14.7-11.7c-6.5-1.4-13.2,0.4-18.2,4.7l0,0
		c-7,6.1-17.4,5.6-23.8-1c-6.5-6.6-14.2-14.7-19.4-20c-3.4-3.5-8.8-4.3-13-1.8l0,0c-4.3,2.5-9.6,1.9-13.3-1.4
		c-8-7.1-22-19.7-32.5-29.1c-3.2-2.8-7.5-4-11.7-3.1c-4.2,0.9-7.7,3.7-9.5,7.6c0,0,0,0,0,0c-1.5,3.4-4.8,5.7-8.5,6
		c-3.7,0.3-7.3-1.4-9.4-4.5c-4.3-6.3-9.3-13.6-13.8-20.3c-3.4-4.9-8.7-8.2-14.6-9c-5.9-0.8-11.9,0.9-16.4,4.8l0,0
		c-3.3,2.7-7.9,3-11.4,0.5c-18-12.4-71.1-49-71.1-49s-7.3,108.2,0,160.2c7.4,52,34.5,140.2,72.3,166.7c37.8,26.4,63.9,33,147.2,46
		s142,22,160.8,26.9c18.8,4.9,56.6-17.5,54-31.2"/>
	<path class="st3" d="M1194.8,813.7c0,0-182.2-92.1-219.9-111.1c-4-2-8.9-1.2-12.1,2c-24.3,24.7-123.9,125.9-123.9,125.9
		s-8.8-9.7-19.7-21.6c-8.8-9.7-21.9-14.2-34.8-12.2c-12.9,2-23.9,10.4-29.4,22.4c-7.6,16.9-15.3,33.7-20,44.1
		c-1.2,2.6-3.4,4.5-6.1,5.3c-2.7,0.8-5.6,0.4-8-1.2l0,0c-4.4-2.9-10.3-1.6-13.1,2.7c-4.5,6.9-11,16.7-15.5,23.6
		c-2.9,4.5-8.9,5.7-13.4,2.8l0,0c-2.4-1.5-5.2-2-7.9-1.2c-2.7,0.7-4.9,2.6-6.2,5.1c-2.3,4.8-5.1,10.6-7.3,15.1c-1,2-2.8,3.5-5,4.1
		c-2.2,0.6-4.5,0.2-6.4-1c0,0,0,0,0,0c-1.9-1.2-4.2-1.6-6.3-1c-2.2,0.6-3.9,2-5,4c-3.1,6.2-7.6,15-11,21.9c-1.3,2.6-3.7,4.6-6.6,5.4
		c-2.9,0.8-5.9,0.3-8.4-1.3c-0.1-0.1-0.2-0.1-0.3-0.2c-2.6-1.7-5.8-2.1-8.8-1.2c-3,0.9-5.3,3.2-6.5,6.1c-4.8,12.2-12.1,30.7-16,40.6
		c-0.5,1.1-1.5,1.9-2.8,1.9c-1.2,0-2.3-0.7-2.9-1.8c0,0,0,0,0,0c-0.5-1.2-1.7-1.9-3-1.9c-1.3,0-2.4,0.8-3,1.9
		c-6,13.4-19.7,44-26.7,59.7c-0.6,1.4-2.1,2.3-3.7,2.2c-1.6-0.1-2.9-1.2-3.3-2.8c0,0,0,0,0,0c-0.5-1.8-2-3.2-3.8-3.6
		c-1.9-0.3-3.7,0.5-4.8,2c-10.4,15.1-31.3,45.7-40.1,58.6c-0.7,1.1-2.1,1.6-3.4,1.4c-1.3-0.2-2.4-1.2-2.7-2.4c0,0,0,0,0,0
		c-0.4-1.4-1.5-2.4-2.9-2.8c-1.4-0.3-2.9,0.2-3.8,1.3c-6.6,7.7-18.5,21.6-24.1,28.2c-0.8,0.9-2,1.5-3.2,1.4c-1.2,0-2.4-0.6-3.1-1.5
		c0,0,0,0,0,0c-1.2-1.5-3.1-2.3-5.1-2.1c-1.9,0.2-3.6,1.4-4.4,3.2c-2.5,5.4-5.6,12-6.8,14.6c-0.4,0.8-0.8,1.5-1.3,2.1
		c-8.4,10.5-81.9,101.6-81.9,101.6h854.1"/>
	<path class="st4" d="M805.1,1223.4h-14.2l7.1-169.9l3.7,89.6l5.6-105l4.4,81.7l6.4-95.5l6.3,93l7.9-109.9l7,98l9.8-118.8l8.9,108.3
		l8.8-107.2l7.1,86.1l4.3-75.3l2.5,43.4l5.3-92.5l8.7,152.7l10.7-187.1l7.6,134l5.7-99.1l5,88.5l7.1-125.1l6.3,110.9l4.8-83.2
		l7.6,134.2l10.6-186.2l7.2,125.9l5-87.7l2.4,43l5.3-92.9l10.3,180.8l8.5-149.3l7.2,126.8l5.5-96.5l4.5,79.6l6.5-114.5l12.2,214.6
		l13.8-241.7l13,228.7l14.1-247l14.1,247.1l10.3-180.1l8.5,149.3l12.5-219.6l13,228.1l10.8-189.4l7.9,138.2l12.1-211.3l7,123.7
		l2.9-51.1l9.9,174.1l9.8-171.6v356.6h-29.2l0,0.6h-41l2.2-38.8h-10.1l2.2,39.4h-37.4l2.1-36.1h-15.4l1,18.3h-27.6l1,17.8H863.6
		l1.9-33.9h-17.9l0.1-1.1h-0.3l0,0.4h-30.4l0.1-0.8H817l0.1,2.5H805L805.1,1223.4z"/>
	<path class="st5" d="M-175.5,792l155.1-89.6c3.4-1.9,7.6-1.8,10.8,0.3C24.7,724.9,213.9,847.8,248.2,870c3.3,2.1,7.4,2.2,10.8,0.3
		c1.9-1.1,4-2.3,6.1-3.5c4.5-2.6,10.4-1.4,13.5,2.8c5.2,7.1,13.1,17.7,18.4,24.8c3.1,4.2,8.9,5.4,13.5,2.8c0.8-0.5,1.6-0.9,2.4-1.4
		c2.4-1.4,5.3-1.8,8-1c2.7,0.8,5,2.6,6.3,5c2.6,4.8,5.8,10.6,8.4,15.3c1.2,2.2,3.3,3.9,5.8,4.6c2.5,0.7,5.1,0.4,7.3-0.9v0
		c2.2-1.3,4.8-1.6,7.2-0.9c2.4,0.7,4.5,2.3,5.8,4.5c3.7,6.6,9,15.8,12.8,22.6c1.4,2.4,3.6,4.2,6.3,4.9c2.7,0.7,5.5,0.4,7.9-1
		c1.4-0.8,2.9-1.7,4.3-2.5c2.5-1.5,5.6-1.8,8.4-0.9c2.8,0.9,5.1,3,6.3,5.6c5.4,12.1,14,31.6,18.6,41.9c0.5,1.2,1.8,2.1,3.1,2.1
		c1.4,0,2.6-0.7,3.2-1.9c0,0,0,0,0,0c0.6-1.3,1.9-2,3.3-2c1.4,0,2.7,0.8,3.3,2.1c6.5,13,21.2,41.9,29.3,58c0.9,1.8,2.9,2.9,4.9,2.7
		c2-0.2,3.8-1.6,4.3-3.6c0,0,0,0,0,0c0.5-1.6,1.8-2.8,3.4-3.1c1.6-0.3,3.3,0.3,4.3,1.6c11.1,14.4,36.5,47.2,46.9,60.6
		c0.9,1.1,2.3,1.7,3.7,1.4c1.4-0.3,2.6-1.3,3-2.6c0,0,0,0,0,0c0.5-1.5,1.7-2.6,3.2-2.9c1.5-0.4,3.1,0.1,4.1,1.2
		c7.8,8.1,22.4,23.2,28.4,29.4c0.7,0.7,1.7,1.1,2.7,1.1s2-0.4,2.7-1.2v0c1.7-1.8,4.1-2.7,6.6-2.4c2.4,0.3,4.6,1.8,5.8,4
		c2.7,5.1,5.7,10.8,7,13.2c0.4,0.8,0.9,1.5,1.5,2.1l92.5,101.6h-832.4C-93.8,1103.2-105.1,938.1-175.5,792z"/>
	<path class="st6" d="M-120,969.3l1.7-29.9l10.6,185.2l9.9-174.1l2.9,51.1l7.1-123.7l12.1,211.3l7.9-138.2l10.8,189.4l13-228.1
		l12.5,219.6l8.5-149.3l10.3,180.1L1.3,915.6l14.1,247l13.1-228.7l13.8,241.7L54.5,961l6.5,114.5l4.5-79.6l5.5,96.5l7.2-126.8
		l8.5,149.3L97.1,934l5.3,92.9l2.5-43l5,87.7l7.2-125.9l10.6,186.2l7.7-134.2l4.7,83.2l6.3-110.9l7.1,125.1l5.1-88.5l5.7,99.1
		l7.6-134l10.7,187.1l8.7-152.7l5.3,92.5l2.5-43.4l4.3,75.3l7.1-86.1l8.8,107.2l8.9-108.3l9.8,118.8l7-98l7.9,109.9l6.3-93l6.4,95.5
		l4.4-81.7l5.6,105l3.7-89.6l6,144.2h-424C-111.3,1162-104.8,1064.5-120,969.3z"/>
	<path class="st7" d="M1042.2,1073l2.9-51.1l9.9,174.1l10.6-185.2l8.2,143.4l9.5-167.2l20.5,359.1h-19.1l1.4,23.8H1065l0.6,11.1
		h-29.9l0,0.6h-41l2.2-38.8h-10.1l4,70.3h-41l3.8-67h-15.4l1,18.3h-27.6l1.5,27.1h-13.1l2,34.9h-41l0.7-12h-30.3l0.8,13.8h-23.8
		l0.5,8.9h-41l0-0.6h-2.3l2.8,49.1h-41l7.8-137.4h-17.9l0.1-1.1h-0.3l0,0.4h-30.4l0.1-0.8h-0.2l0.1,2.5h-12.1l0.1,2.1H661l7.1-169.9
		l3.7,89.6l5.6-105l4.4,81.7l6.4-95.5l6.3,93l7.9-109.9l7,98l9.8-118.8l8.9,108.3l8.8-107.2l7.1,86.2l4.3-75.3l2.5,43.4l5.3-92.5
		l8.7,152.7l10.7-187.1L783,1177l5.7-99.1l5.1,88.5l7.1-125.1l6.3,110.9l4.8-83.2l7.7,134.2l10.6-186.2l7.2,125.9l5-87.7l2.5,43
		l5.3-92.9l10.3,180.8L869,1037l7.2,126.8l5.5-96.5l4.5,79.6l6.5-114.5L905,1247l13.8-241.7l13,228.7L946,987l14.1,247.1l10.3-180.1
		l8.5,149.3l12.5-219.6l13,228.1l10.8-189.4l7.9,138.2l12.1-211.3L1042.2,1073z M861.8,1396.1l0.6,9.8l0.6-9.8H861.8z"/>
	<g transform="matrix(-1,0,0,1,3180.56,54.0829)">
		<path class="st8" d="M3067.8,999.4l2.9-51.1l9.9,174.1l10.6-185.2l8.2,143.4l9.5-167.2l20.5,359.1h-19.1l1.4,23.8h-21.1l0.6,11.1
			h-29.9l0,0.6h-41l2.2-38.8h-10.1l4,70.3h-41l3.8-67h-15.4l1,18.3h-27.6l1.5,27.1h-13.1l2,34.9h-41l0.7-12h-30.3l0.8,13.8h-23.8
			l0.5,8.9h-41l0-0.6h-2.3l2.8,49.1h-41l7.8-137.4h-17.9l0.1-1.1h-0.3l0,0.4h-30.4l0.1-0.8h-0.2l0.1,2.5h-12.1l0.1,2.1h-14.2
			l7.1-169.9l3.7,89.6l5.6-105l4.4,81.7l6.4-95.5l6.3,93l7.9-109.9l7,98l9.8-118.8l8.9,108.3l8.8-107.2l7.1,86.2l4.3-75.3l2.5,43.4
			l5.3-92.5l8.7,152.7l10.7-187.1l7.6,134l5.7-99.1l5.1,88.5l7.1-125.1l6.3,110.9l4.8-83.2l7.6,134.2l10.6-186.2l7.2,125.9l5-87.7
			l2.4,43l5.3-92.9l10.3,180.8l8.5-149.3l7.2,126.8l5.5-96.5l4.5,79.6l6.5-114.5l12.2,214.6l13.8-241.7l13,228.7l14.1-247
			l14.1,247.1l10.3-180.1l8.5,149.3l12.5-219.6l13,228.1l10.8-189.4l7.9,138.2l12.1-211.3L3067.8,999.4z M2887.4,1322.6l0.6,9.8
			l0.6-9.8H2887.4z"/>
	</g>
	<path class="st9" d="M1194.8,1248.9v234H-234.3v-35.1c44.4-61.1,76.8-128.5,97.1-198.9H1194.8z"/>
	<g>
		<defs>
			<path id="SVGID_1_" d="M1194.8,1248.9v234H-234.3v-35.1c44.4-61.1,76.8-128.5,97.1-198.9H1194.8z"/>
		</defs>
		<clipPath id="SVGID_2_">
			<use xlink:href="#SVGID_1_"  style="overflow:visible;"/>
		</clipPath>
		<g class="st10">
			<g transform="matrix(-0.48574,0,0,1,1922.02,37.4374)">
				<path class="st11" d="M4292.6,1263.2l-518,8.5l518,1"/>
			</g>
			<g transform="matrix(-0.917087,0,0,1,2864.73,61.6427)">
				<path class="st11" d="M3311.9,1263.2l-518,8.5l518,1"/>
			</g>
		</g>
	</g>
	<g transform="matrix(1,0,0,-1,0,1855.33)" class="st12">
		<path class="st13" d="M-138.6,611.5l-0.1,0.2l0.1-0.4L-138.6,611.5z M-138.2,609.9l-0.1,0.2L-138.2,609.9L-138.2,609.9z
			 M-137.7,608.2l-0.1,0.2l0.1-0.4L-137.7,608.2z M-137.2,606.8c26.2-90.7,32.1-186.4,17.2-279.8l1.7-29.9l10.6,185.2l9.9-174.1
			l2.9,51.1l7.1-123.7l12.1,211.3l7.9-138.2L-57.1,498l13-228.1l12.5,219.6l8.5-149.3l10.3,180.1L1.3,273.2l14.1,247l13.1-228.7
			l13.8,241.7l12.2-214.6L61,433.2l4.5-79.6l2.2,39.2l3.9-67.6l3.3,57.3l3.4-59.2l6.3,109.9l4.8-84.2l2.2,39.3l5.5-96.6l5.3,92.9
			l2.5-43l3,52.9l2-34.4l2,34.7l5.2-91.5l0.9,16.4l1.8-32.2l9.7,169.9l5.8-102l2.4,41.4l2.1-36.2l2.4,41.8l4.3-74.7l7.1,125.1
			l5.1-88.5l1.3,22.5l3.7-64.9l4.4,76.6l3.9-69.1l8.2,143.1l4.6-80.2l2.5,44l4.1-72.5l5.3,92.5l2.5-43.4l2.5,43.6l7.5-131.2
			l10.4,182l8.8-106.4l2.8,34l5.2-91.3l6.4,111.8l2.4-33.7l7.9,109.9L254,514l8.2-143.4l6.2,109.3l1.5-27.6l0.3,6.3l3-53.1l4.9,86.8
			l1-24.6l0.6,15l6.1-107.5l8.5,149.3l10.3-180.8l5.3,92.9l2.4-43l5,87.7l7.2-125.9l10.6,186.2l7.6-134.2l4.8,83.2l6.3-110.9
			l7.1,125.1l5-88.5l5.7,99.1l7.7-134l10.7,187.1l8.7-152.7l5.3,92.5l2.5-43.4L411,540l7.1-86.2l8.8,107.2l8.9-108.3l9.8,118.8l7-98
			l7.9,109.9l6.3-93l6.4,95.5l4.4-81.7l5.5,102.4h-620.2L-137.2,606.8z M490.5,606.6h-7.3l3.6-87L490.5,606.6z"/>
	</g>
	<g transform="matrix(1,0,0,-1,0,1856.45)" class="st14">
		<path class="st13" d="M673,606.6l4.4-82.9l4.4,81.7l6.4-95.5l6.3,93l7.9-109.9l7,98l9.8-118.8l8.9,108.3l8.8-107.2l7.1,86.1
			l4.3-75.3l2.5,43.4l5.3-92.5l8.7,152.7l10.7-187.1l7.6,134l5.7-99.1l4.8,83.9l4.5-108.4l0.9,22.2l2-34.2l3.2,57l3.2-60.3l3.1,57.7
			l1.5-26.7l1.4,25.5l4.7-70.3l6.3,93l0.5-6.6l5.3-93.7l0.6,10.6l1.5-20.3l7,98l0.8-9.3l2.3-40.8l0.4,7.4l6.3-76.1l8.9,108.3
			l8.8-107.2l7.1,86.1l4.3-75.3l2.5,43.4l5.3-92.5l5.8,101.6l1.1-18.7l2.9,51.1l9.6-168.3l7.6,134l5.7-99.1l5,88.5l7.1-125.1
			l6.3,110.9l4.8-83.2l3.3,58.8l0.7-13l4.3,75.4l9.9-173.2l7.2,125.9l5-87.7l2.4,43l5.3-92.9l8.7,152.1l2.6-45.9l1.6,28.7l5.9-103.3
			l7.2,126.8l5.5-96.5l4.5,79.6l6.5-114.5l7.5,131.1l4.9-86.3l4.8,83.4l8.9-155.4l12.2,214.3l4.6-80.8l0.8,14.4l9.5-166.2l7.4,129
			l0.1-1.1l6.7,118.1l10.2-179l8.5,149.3l12.5-219.6l13,228.1l10.8-189.4l7.9,138.2l12.1-211.3l7,123.7l2.9-51.1l9.9,174.1
			l9.8-171.6v356.6v-4.1h-69.9h-6.2H673z M670.9,606.6h-5.6l2.8-67.5L670.9,606.6z"/>
	</g>
	<path class="st15" d="M157.2,1302.1l730.9-0.7l-362.9,6.7L157.2,1302.1z"/>
	<path class="st11" d="M1194.8,1263.2l-518,8.5l518,1"/>
	<g transform="matrix(0.48574,0,0,1,1135.25,37.4374)">
		<path class="st11" d="M122.5,1263.2l-518,8.5l518,1"/>
	</g>
	<g transform="matrix(0.917087,0,0,1,183.035,61.6427)">
		<path class="st11" d="M1103.2,1263.2l-518,8.5l518,1"/>
	</g>
	<g transform="matrix(1.60482,0,0,1,-1335.16,82.9979)">
		<path class="st11" d="M1576.5,1263.2l-518,8.5l518,1"/>
	</g>
	<path class="st11" d="M354.9,1271.7l-499.4,0.9c1-3,2-6,2.9-9.1L354.9,1271.7z"/>
	<g transform="matrix(-1.60482,0,0,1,4458.19,120.49)">
		<path class="st11" d="M2838.6,1263.2l-518,8.5l518,1"/>
	</g>
	<g transform="matrix(-1.60482,0,0,-0.183287,4456.51,1219.16)">
		<path class="st15" d="M2838.6-810.3l-518,8.5l518,1"/>
	</g>
	<g transform="matrix(1.60482,0,0,-0.834706,-1335.72,1753.09)">
		<path class="st15" d="M1576.5,557.2l-518,8.5l518,1"/>
	</g>
	<g>
		<path class="st16" d="M1098.8,1133.5c0,0-42.4,5.3-78.8-27.2c-61.5-4.8-84.2-39.2-82.8-75.7c1.4-36.5,320-80.6,320-80.6
			s13.3,63.1-21.9,104.7C1198.3,1127.4,1142.1,1133.5,1098.8,1133.5z"/>
		<path class="st17" d="M1115.4,1058.5c-6.3,2.1-12.7,4-19.2,5.4c-8.4,1.9-21,4.8-32.4,7.4c-17,3.8-34.8-0.4-48.2-11.4
			c-2.3-1.9-4.6-3.8-6.8-5.6c-9.4-7.7-21.2-11.7-33.3-11.3c-2.4,0.1-4.9,0.2-7.5,0.2c-34.5,1.1-68-11.9-92.7-36.1
			c-0.1-0.1-0.2-0.2-0.4-0.3c-19.7-19.2-27.5-47.5-20.6-74.1c0,0,0,0,0,0c4-15.4-4.5-31.3-19.6-36.4c-1.8-0.6-3.7-1.3-5.6-1.9
			c-18.4-6.3-29.3-25.3-25.4-44.4c2.5-12.4,5.3-26,7.6-37.1c3-14.4,1.2-29.3-5-42.6c-0.9-1.9-1.8-3.9-2.7-5.8
			c-4-8.6-1.5-18.7,5.9-24.5c3.4-2.7,7.2-5.6,10.9-8.5c13-10.2,16.9-28.2,9.3-42.8c0,0,0,0,0,0c-8.1-15.6-4.4-34.8,8.9-46.2
			c3.7-3.1,7.3-6.3,10.6-9.1c7-6,8.8-16.1,4.3-24.2c-0.8-1.4-1.6-2.9-2.4-4.4c-5.1-9.2-5.1-20.3,0.1-29.4c3.1-5.5,6.3-11.2,8.3-14.5
			c1.2-2.1,2.5-4,3.9-5.9c9.9-13.1,51.3-68.2,68.7-91.2c5.1-6.8,9.7-13.9,13.9-21.3c14.3-25.5,48.2-86,48.2-86s5.2,8.6,11.9,19.9
			c19.7,32.8,51.2,56.9,88.1,67.3l0,0c33.3,9.4,61.1,32.5,76.4,63.5c0.6,1.2,1.2,2.4,1.7,3.5c3.4,6.8,7.9,12.8,13.6,17.9
			c4.8,4.3,10.9,9.8,16.6,14.9c10.4,9.4,16.4,22.7,16.4,36.7c0,0,0,0,0,0c0,25.8,9.2,50.8,26.1,70.4c2.7,3.2,5.4,6.3,7.8,9.1
			c7.6,8.8,13.7,18.8,18.2,29.6c4.6,11.1,10.8,25.9,16,38.4c5.8,13.8,0.4,29.8-12.6,37.3v0c-5.7,3.3-9.6,8.9-10.8,15.3
			c-1.2,6.4,0.5,13.1,4.6,18.2c2,2.5,4.1,5.1,6.2,7.7c13.5,16.7,14.3,40.4,1.9,57.9v0c-7,9.9-6.5,23.3,1.2,32.6
			c1.1,1.3,2.2,2.7,3.3,4c9.5,11.5,9.4,28.2-0.1,39.6c-10.5,12.6-22.9,27.4-27.3,32.7c-1.1,1.3-2.1,2.7-3.1,4.1l0,0
			c-20.4,30.1-50.1,52.6-84.4,64.4C1146.5,1047.9,1126.7,1054.7,1115.4,1058.5z"/>
		<path class="st18" d="M1274.4,764.7L1274.4,764.7c13-7.5,18.4-23.5,12.6-37.3c-5.2-12.5-11.4-27.3-16-38.4
			c-4.5-10.7-10.6-20.7-18.2-29.6c-2.4-2.8-5.1-5.9-7.8-9.1c-16.8-19.6-26-44.6-26-70.4c0,0,0,0,0,0c0-14-6-27.4-16.4-36.7
			c-3.3-3-6.8-6.1-10.1-9.1c-8.9,9.9-10.3,24.7-2.9,36.2l0,0c3.6,5.5,4.5,12.3,2.7,18.6c-1.9,6.3-6.4,11.4-12.4,14.1
			c-2.9,1.3-6,2.7-9,4c-19.6,8.7-31.1,29.4-28.1,50.7l0,0c1.7,12-4.9,23.6-16,28.5c-1.6,0.7-3.2,1.4-4.8,2.1
			c-13.7,5.9-21.2,20.8-18,35.3c3.6,16,7.9,34.8,9.4,41.5c0.4,1.7,0.7,3.4,0.9,5.1c4.5,36.1,20.5,69.7,45.8,95.8
			c14.2,14.6,28.7,29.7,37,38.3c4.6,4.8,9.5,9.3,14.6,13.6c6.6,5.5,16.5,13.8,25.5,21.3c9.5,7.9,21.2,12.4,33.3,13
			c3.3-4,6.8-8.2,10.1-12.1c9.6-11.5,9.6-28.1,0.1-39.6c-1.1-1.3-2.2-2.7-3.3-4c-7.7-9.4-8.2-22.7-1.2-32.6v0
			c12.4-17.6,11.6-41.2-1.9-57.9c-2.1-2.6-4.2-5.2-6.2-7.7c-4.1-5.1-5.8-11.7-4.6-18.2C1264.7,773.6,1268.7,768,1274.4,764.7z"/>
		<path class="st19" d="M1068.1,1006.7c0.2-1.7,0.5-3.4,0.9-5.1c1.5-6.7,5.8-25.6,9.4-41.5c3.3-14.6-4.3-29.4-18-35.3
			c-1.6-0.7-3.2-1.4-4.8-2.1c-11.1-4.8-17.6-16.5-16-28.5l0,0c3-21.3-8.5-42-28.1-50.7c-3-1.4-6.1-2.7-9-4
			c-6-2.7-10.5-7.8-12.4-14.1c-1.9-6.3-0.9-13.1,2.7-18.6l0,0c8.1-12.6,5.7-29.3-5.8-39c-10.3-8.7-22.6-19.1-31.8-26.9
			c-8.9-7.5-18.9-13.6-29.7-18c-3.4-1.4-7.2-2.9-11.1-4.5c-23.9-9.8-43.5-27.8-55.3-50.8c0,0,0,0,0,0c-5.1-10-13.5-17.9-23.6-22.5
			c-10.9,11.6-13.4,29-5.9,43.3c0,0,0,0,0,0c7.6,14.6,3.7,32.7-9.3,42.8c-3.8,2.9-7.5,5.9-10.9,8.5c-7.5,5.8-9.9,16-5.9,24.5
			c0.9,1.9,1.8,3.8,2.7,5.8c6.2,13.3,8,28.2,5,42.6c-2.3,11.1-5.1,24.8-7.6,37.1c-3.9,19.1,6.9,38.1,25.4,44.4
			c1.9,0.6,3.7,1.3,5.6,1.9c15.1,5.1,23.6,21,19.6,36.4c0,0,0,0,0,0c-7,26.6,0.9,54.9,20.6,74.1c0.1,0.1,0.2,0.2,0.4,0.3
			c24.7,24.2,58.2,37.2,92.7,36.1c2.6-0.1,5.2-0.2,7.5-0.2c12.1-0.4,24,3.6,33.3,11.3c2.2,1.8,4.5,3.7,6.8,5.6
			c8.6,7.1,19.1,11.3,29.9,12.5C1057.4,1052.4,1065.2,1030.1,1068.1,1006.7z"/>
	</g>
	<g transform="matrix(-1,0,0,1,3080.04,-0.207593)">
		<path class="st16" d="M3124.4,1133.5c0,0-42.4,5.3-78.8-27.2c-61.5-4.8-84.2-39.2-82.8-75.7c1.4-36.5,320-80.6,320-80.6
			s13.3,63.1-21.9,104.7C3223.9,1127.4,3167.7,1133.5,3124.4,1133.5z"/>
		<path class="st18" d="M3141,1058.5c-6.3,2.1-12.7,4-19.2,5.4c-8.4,1.9-21,4.8-32.4,7.4c-17,3.8-34.8-0.4-48.2-11.4
			c-2.3-1.9-4.6-3.8-6.8-5.6c-9.4-7.7-21.2-11.7-33.3-11.3c-2.4,0.1-4.9,0.2-7.6,0.2c-34.5,1.1-68-11.9-92.7-36.1
			c-0.1-0.1-0.2-0.2-0.4-0.3c-19.7-19.2-27.5-47.5-20.6-74.1c0,0,0,0,0,0c4-15.4-4.5-31.3-19.6-36.4c-1.8-0.6-3.7-1.3-5.6-1.9
			c-18.4-6.3-29.3-25.3-25.4-44.4c2.5-12.4,5.3-26,7.6-37.1c3-14.4,1.2-29.3-5-42.6c-0.9-1.9-1.8-3.9-2.7-5.8
			c-4-8.6-1.6-18.7,5.9-24.5c3.4-2.7,7.2-5.6,10.9-8.5c13-10.2,16.9-28.2,9.3-42.8c0,0,0,0,0,0c-8.1-15.6-4.4-34.8,8.9-46.2
			c3.6-3.1,7.3-6.3,10.6-9.1c7-6,8.8-16.1,4.3-24.2c-0.8-1.4-1.6-2.9-2.4-4.4c-5.1-9.2-5.1-20.3,0.1-29.4c3.1-5.5,6.3-11.2,8.3-14.5
			c1.2-2.1,2.5-4,3.9-5.9c9.9-13.1,51.3-68.2,68.7-91.2c5.1-6.8,9.7-13.9,13.9-21.3c14.3-25.5,48.2-86,48.2-86s5.2,8.6,11.9,19.9
			c19.7,32.8,51.2,56.9,88.1,67.3l0,0c33.3,9.4,61.1,32.5,76.4,63.5c0.6,1.2,1.2,2.4,1.7,3.5c3.4,6.8,7.9,12.8,13.6,17.9
			c4.8,4.3,10.9,9.8,16.6,14.9c10.4,9.4,16.4,22.7,16.4,36.7c0,0,0,0,0,0c0,25.8,9.2,50.8,26.1,70.4c2.7,3.2,5.4,6.3,7.8,9.1
			c7.6,8.8,13.7,18.8,18.2,29.6c4.6,11.1,10.8,25.9,16,38.4c5.8,13.8,0.4,29.8-12.6,37.3v0c-5.7,3.3-9.6,8.9-10.8,15.3
			c-1.2,6.4,0.5,13.1,4.6,18.2c2,2.5,4.1,5.1,6.2,7.7c13.5,16.7,14.3,40.4,1.9,57.9v0c-7,9.9-6.5,23.3,1.2,32.6
			c1.1,1.3,2.2,2.7,3.3,4c9.5,11.5,9.4,28.2-0.1,39.6c-10.5,12.6-22.9,27.4-27.3,32.7c-1.1,1.3-2.1,2.7-3.1,4.1l0,0
			c-20.4,30.1-50.1,52.6-84.4,64.4C3172.1,1047.9,3152.3,1054.7,3141,1058.5z"/>
		<path class="st20" d="M3147.6,688.2c1.6-0.7,3.2-1.4,4.8-2.1c11.1-4.8,17.6-16.5,16-28.5l0,0c-3-21.3,8.5-42,28.1-50.7
			c3-1.4,6.1-2.7,9-4c6-2.7,10.5-7.8,12.4-14.1c1.9-6.3,0.9-13.1-2.7-18.6l0,0c-7.4-11.5-6-26.3,2.9-36.2c3.3,3,6.8,6.1,10.1,9.1
			c10.4,9.4,16.4,22.7,16.4,36.7c0,0,0,0,0,0c0,25.8,9.2,50.8,26.1,70.4c2.7,3.2,5.4,6.3,7.8,9.1c7.6,8.8,13.7,18.8,18.2,29.6
			c4.6,11.1,10.8,25.9,16,38.4c5.8,13.9,0.4,29.8-12.6,37.3v0c-5.7,3.3-9.6,8.9-10.8,15.3c-1.2,6.4,0.5,13.1,4.6,18.2
			c2,2.5,4.1,5.1,6.2,7.7c13.5,16.7,14.3,40.4,1.9,57.9v0c-7,9.9-6.5,23.3,1.2,32.6c1.1,1.3,2.2,2.7,3.3,4
			c9.5,11.5,9.4,28.2-0.1,39.6c-3.3,3.9-6.7,8.1-10.1,12.1c-12.1-0.6-23.8-5.1-33.3-13c-9-7.5-18.9-15.8-25.5-21.3
			c-5.1-4.3-10-8.8-14.6-13.6c-8.3-8.6-22.9-23.6-37-38.3c-25.3-26.1-41.3-59.7-45.8-95.8c-0.2-1.7-0.5-3.4-0.9-5.1
			c-1.5-6.7-5.8-25.6-9.4-41.5C3126.4,709,3133.9,694.2,3147.6,688.2z"/>
		<path class="st21" d="M2860.2,896.2c-1.8-0.6-3.7-1.3-5.6-1.9c-18.4-6.3-29.3-25.3-25.4-44.4c2.5-12.4,5.4-26,7.6-37.1
			c3-14.4,1.2-29.3-5-42.6c-0.9-1.9-1.8-3.9-2.7-5.8c-4-8.6-1.6-18.7,5.9-24.5c3.4-2.6,7.2-5.6,10.9-8.5c13-10.2,16.9-28.2,9.3-42.8
			c0,0,0,0,0,0c-7.5-14.4-4.9-31.7,5.9-43.3c10.1,4.6,18.4,12.5,23.6,22.5c0,0,0,0,0,0c11.8,23,31.4,41,55.3,50.8
			c3.9,1.6,7.6,3.1,11.1,4.5c10.8,4.4,20.8,10.5,29.7,18c9.2,7.8,21.5,18.2,31.8,26.9c11.4,9.7,13.9,26.4,5.8,39l0,0
			c-3.6,5.5-4.5,12.3-2.7,18.6c1.9,6.3,6.4,11.4,12.4,14.1c2.9,1.3,6,2.7,9,4c19.6,8.7,31.1,29.4,28.1,50.7l0,0
			c-1.7,12,4.9,23.6,16,28.5c1.6,0.7,3.2,1.4,4.8,2.1c13.7,5.9,21.2,20.8,18,35.3c-3.6,16-7.9,34.8-9.4,41.5
			c-0.4,1.7-0.7,3.4-0.9,5.1c-2.9,23.4-10.7,45.7-22.6,65.6c-10.8-1.1-21.3-5.4-29.9-12.5c-2.3-1.9-4.6-3.8-6.8-5.6
			c-9.4-7.7-21.2-11.7-33.3-11.3c-2.4,0.1-4.9,0.2-7.5,0.2c-34.5,1.1-68-11.9-92.7-36.1c-0.1-0.1-0.2-0.2-0.4-0.3
			c-19.7-19.2-27.5-47.5-20.6-74.1c0,0,0,0,0,0C2883.8,917.3,2875.3,901.4,2860.2,896.2z"/>
	</g>
	<g>
		<path class="st22" d="M306.9,1156.7L501.3,1278c0,0,44.2,37.7,87.2,15c43-22.7,200.9-160.7,200.9-160.7s-140.7,67-244.2,84.6
			C455.9,1203.3,365.8,1179.4,306.9,1156.7z"/>
		<path class="st22" d="M520.2,1218.6c0,0-36.6-24.4-41.3-28.3c11.7-1.8,30.4-1,30.4-1s18.9-7.3,5.6-10.4
			c-13.2-3.1-62.3-9.9-62.3-9.9s-10.1-1.8-9.2,5.3c0.9,7.2,23,37.3,23,37.3l77.6,32.2l71.4-39l11.2-17.9c0,0,10.2-15.6-6-13.5
			c-16.3,2.1-68.2,3.6-68.2,3.6s-7.3,9.2,0,11.6c7.3,2.4,38.4,2,38.4,2l-48.4,27.9"/>
		<path class="st22" d="M581.7,1199.4c0,0-26,8.8-29.6,8.8c-3.6,0-4-1.2-4-1.2s1.3-5.6,4-8.2c2.6-2.6,7.7-28.6-4-35.6
			c-11.6-7-31.1-0.8-35,15.6c-3.9,16.4,2.6,15.3,6.5,24.9c3.9,9.6-10.9,1-17.6,3.9c-6.8,2.9,6,12.8,11.2,13.7
			c5.2,0.9,18.9,6.9,23.5,11.5c4.6,4.7,11.6,56.9,11.6,56.9s-2.9,26.5,0,30.1c2.9,3.6,13.6-3.7,15.6-9c1.9-5.3-5.6-3.2-5.6-3.2
			l2.7-10.6l68.9-47.3c0,0-2.4,46-2.4,50.9c0,4.9,4.2,5.7,19,4.9c0,0,7.3,0.4,12.6,0.7c0.8,0,1.6-0.4,1.9-1.2
			c0.3-0.8,0.1-1.6-0.5-2.2c-4.5-3.9-12.2-9.9-20-13.1c3.6-41.3,3.9-45.2,3.9-45.2"/>
	</g>
	<g>
		<path class="st23" d="M921.2,764.1l42.7,53.6l0.4-0.5l120.4,23.3l2.8,1.1l2,2l1.1,2.7l0,3l10.7,2.1l-1.1,3.5
			c-1.7,3.2-3.8,6.2-6.7,8.2c-3,2-6.5,3.1-10.1,3.2c-1.5,0-3.7-0.3-3.7-0.3l-121.4-34.2l-1.1-0.6c-1.3-0.9-2.3-2.1-3-3.5l-34.9-62.2
			l-2.8-6.3l-0.3-0.5C917.9,760.5,919.5,762.3,921.2,764.1z"/>
		<path class="st23" d="M1070.3,569.7l4.8,4.8l54.5,68.7l0.8,0.9l0.6,1.1l0.4,1.2c0.2,1.3,0.2,1.3,0.2,2.6L1101,810.3l-1.3,3.5
			c-1.9,3.1-4.2,6-7.2,7.8c-3.1,1.8-6.7,2.7-10.3,2.5c-1.5-0.1-3.7-0.6-3.7-0.6l2.8-10.8l-2.6-1.3l-1.9-2.1l-0.9-2.6l0.2-2.9
			l40.2-155.4l0.6-0.1l-43.8-72.5l-3.2-6.7C1070.1,569.4,1070.2,569.6,1070.3,569.7z"/>
		<path class="st23" d="M909,565l50.2,106.2l0.6-0.7l79.4,15.6l4.2,1.8l3.1,3.1l1.7,4.1l0,4.6l6.8,1.4l-1.1,3.5
			c-1.7,3.2-3.8,6.2-6.8,8.1c-3,2-6.5,3.1-10.1,3.1c-1.5,0-3.7-0.4-3.7-0.4l-84.2-23.3l-1.8-0.8c-2.7-1.7-4.6-4.1-5.6-7.3
			l-34.8-118.2l-2.6-10.2l-0.5-1.4C905.5,557.8,907.2,561.4,909,565z"/>
		<path class="st23" d="M1176.8,733.8l38.9,91.8l3.3-1.4l-4.5,15.1l0.4,0.7l-96.9,62.1c-2.2,1-4.4,2.2-6.9,2.3
			c-2.4,0.1-4.8,0.1-7.1-0.5c-3.5-0.9-6.6-2.9-9-5.5c-1-1.1-2.2-3-2.2-3l4.6-2.7l-1.6-4.9l0.3-5l2.2-4.5l3.9-3.4l90.6-51.4l0.9,0.3
			l-28-74.8l-21.2,25.3l-1.8-0.5l5.6,34.7l-0.2,0.3l21.2-3.6l2.2-0.1l1.1,0.5l-0.9,0.2l-0.5,0.9l-1.4,0.7l-23,6.1l-2.9-1.7l-0.3,0.1
			l-7.9-38.2l0.6-3.6l-0.2-0.2l28.6-37.3C1168.6,733.1,1172.7,733.5,1176.8,733.8z"/>
		<path class="st23" d="M1010.1,902.4l12.4,39.7l1-1l86.4,10.9l3.1,1.1l2.4,2.1l1.4,2.9l0.2,3.3l10,1.4l-0.9,3.6
			c-1.6,3.3-3.5,6.4-6.3,8.5c-2.9,2.2-6.4,3.5-9.9,3.7c-1.5,0.1-3.7-0.2-3.7-0.2l-89.6-23l-4.5-7.1l-4.2-45.5l0-5.8l-0.2-1.3
			C1008.5,897.9,1009.3,900.2,1010.1,902.4z"/>
		<path class="st23" d="M1022.4,465l3.8,2.3l29.5,25.7l1.9,3.6l0.8,0.1l-3.3,136.5c-0.5,2.4-0.8,4.9-2.3,6.9
			c-1.4,1.9-2.8,3.9-4.6,5.4c-2.8,2.2-6.3,3.6-9.8,3.9c-1.5,0.1-3.7-0.1-3.7-0.1l1.4-12.5l-2.2-0.7l-1.7-1.5l-1-2l-0.2-2.3
			l16.3-132.6l0.7-0.3l-23.6-28.6C1024.6,468.9,1021.1,463.6,1022.4,465z"/>
		<path class="st23" d="M947.6,893.4l20.1,73.6l0.4-0.3l144.5,93.1l2,1.9l1.1,2.5l0.1,2.7l-1,2.6l9.5,6.2l-2.3,2.9
			c-2.8,2.3-5.8,4.3-9.3,5.1c-3.5,0.8-7.2,0.5-10.6-0.8c-1.4-0.5-3.3-1.7-3.3-1.7L958.4,976.7l-2.1-4.7l-11-78.1l-0.1-6.2l-0.1-0.5
			C945.9,889.3,946.8,891.4,947.6,893.4z"/>
		<path class="st23" d="M1209.1,911.6l-72.4,90.8c-1,0.7-1.9,1.6-2.9,2.2c-3.1,1.9-6.7,2.8-10.2,2.6c-2.4-0.1-4.7-0.8-6.9-1.6
			c-2.4-0.8-4.1-2.6-5.9-4.2l0,0c-1.5-1.9-3.2-3.8-3.8-6.2c-0.6-2.3-1.2-4.6-1.1-7c0.1-3.6,1.3-7.1,3.4-10c0.9-1.2,2.4-2.8,2.4-2.8
			l95.9-65.6C1208,910.4,1208.6,911,1209.1,911.6z"/>
		<path class="st23" d="M909.6,960.1l11.5,32.2l0.3-0.6l56.1-11.9l2.9,0.6l1.7,2.5l4.1-0.8l0,3.2c-1.2,2.8-1.2,2.8-3.3,5l-2.9,1.2
			l-60,7.9l-3.5-3l-7.7-36l-0.3-2.9l-0.3-1C908.6,957.7,909.1,958.9,909.6,960.1z"/>
		<path class="st23" d="M1060.5,953.3l0,3.2c-1.1,2.8-1.2,2.9-3.3,5.1l-2.9,1.3l-3.2,0c-2.8-1.1-2.9-1.2-5.1-3.3l-1.3-2.9l-3.1-49.6
			l1-0.2C1048.7,922.4,1054.6,937.9,1060.5,953.3z"/>
		<path class="st23" d="M996,755.2l3,45.1l0.2-0.1l45.8,39.2l1.4,2.7l-1,2.9l3,2.6l-2.5,1.9c-2.9,0.8-3,0.8-6,0.4l-2.8-1.6
			l-44.2-43.6l-0.9-3l3-46.7l0.5-3.8C995.6,752.6,995.8,753.9,996,755.2z"/>
		<path class="st23" d="M1014,836.2l3.8-1.7l0.7,3.1c-0.5,3-0.5,3-2.2,5.6l-2.6,1.8l-51.5,18.4l-2.6-0.3l-35.1-14.5l-3.2-1.6
			l3.6,0.6l35.6,8.7l0-0.2l48.4-21.9l2.9-0.1C1012.6,834.8,1013.3,835.5,1014,836.2z"/>
		<path class="st23" d="M990.8,685.6l2.8,1.3l2.1,2.4l1,3c-0.2,3-0.2,3.1-1.6,5.8l-2.4,2.1l-46,17.9l-0.5-0.9l38.5-30.9l3-1
			C988.7,685.5,989.7,685.6,990.8,685.6z"/>
		<path class="st23" d="M944.5,650.6l3,0.9l2.4,2l1.5,2.7l0.3,3.2l-0.9,3c-2,2.3-2,2.4-4.7,3.8l-3.2,0.3l-40.5-11.6l0.1-1
			C916.5,652.8,930.6,649.2,944.5,650.6z"/>
		<path class="st23" d="M962.7,593.3l-16.2,48.1l-2,2.5l-2.7,1.5l-3,0.4l-3.1-0.9l-2.5-2c-1.5-2.7-1.5-2.7-1.8-5.7l0.8-3.1
			l29.5-41.3C962,593,962.4,593.2,962.7,593.3z"/>
		<path class="st23" d="M1076.3,534.7l-22.5,40.9l-2.4,2l-2.9,0.9l-3.1-0.2l-2.8-1.4l-2.1-2.4c-0.9-2.9-0.9-2.9-0.7-6l1.4-2.8
			l34.3-31.6C1075.8,534.3,1076.1,534.5,1076.3,534.7z"/>
		<path class="st23" d="M1062.2,619.3l-12.7,41.8l-2,2.5l-2.7,1.5l-3.1,0.4c-1.2-0.3-3.1-0.8-3.1-0.8l-2.5-2
			c-1.5-2.7-1.5-2.7-1.9-5.7l0.8-3.1l26.1-35.1C1061.6,619,1061.9,619.2,1062.2,619.3z"/>
		<path class="st23" d="M1162,650.1l-38,39.8l-2.8,1.4l-3.1,0.2l-2.9-0.9l-2.4-2l-1.4-2.8c-0.2-3-0.2-3.1,0.7-6l2-2.4l47.3-28
			C1161.5,649.6,1161.8,649.9,1162,650.1z"/>
		<path class="st23" d="M1108.3,746.3l0.6,3.1c-0.6,3-0.6,3-2.4,5.6l-2.7,1.8l-3.1,0.6c-3-0.6-3-0.6-5.6-2.4l-1.8-2.6l-18-64.4
			l0.9-0.4C1087,707.1,1097.7,726.7,1108.3,746.3z"/>
		<path class="st23" d="M1157.2,866.5l0.5,3.1c-0.7,3-0.7,3-2.4,5.5l-2.7,1.7l-3.1,0.5c-3-0.7-3-0.7-5.5-2.4l-1.7-2.7l-9.6-45.3
			l1-0.4C1141.4,839.9,1149.3,853.2,1157.2,866.5z"/>
		<path class="st23" d="M1182.3,846l26.4,23.9l-0.5,0.9l-33.9-10.9l-2.4-2.1c-1.3-2.7-1.3-2.8-1.6-5.8l1-3l2.1-2.4
			c2.7-1.3,2.8-1.3,5.8-1.6C1180.3,845.3,1181.3,845.7,1182.3,846z"/>
		<path class="st23" d="M1163.9,951l-0.6,3.1c-1.7,2.5-1.7,2.6-4.3,4.3l-3.1,0.6l-3.1-0.6c-2.5-1.7-2.6-1.7-4.3-4.3l-0.6-3.1l7.5-40
			h1C1158.9,924.3,1161.4,937.6,1163.9,951z"/>
		<path class="st23" d="M1125.8,586.4l1.2,83.7l-0.9,3l-1.9,2.4l-2.7,1.5l-3.2,0.4l-3-0.9c-2.4-1.9-2.4-1.9-3.9-4.6l-0.4-3.1
			l13.8-82.5C1125.1,586.3,1125.5,586.4,1125.8,586.4z"/>
	</g>
	<g>
		<g transform="matrix(1,0,0,1,-157.503,0)">
			<path class="st23" d="M278,665.6l1.2,7l5.8,75.7l0.2,1.2l0,1.3c-0.3,1.3-0.3,1.3-0.8,2.5c0,0-1.8,2.7-4.2,4l-107.2,34.8l-3.7,0.5
				c-3.6-0.3-7.2-0.9-10.2-2.7c-3.1-1.9-5.5-4.7-7-7.9c-0.6-1.4-1.2-3.5-1.2-3.5l10-2.4l-0.1-3.2l1.1-2.9l2.1-2.3l2.9-1.4
				l103.1-24.5l1.1,0.9l5.8-70.2l1.2-8.9C278,664.3,278,665,278,665.6z"/>
		</g>
		<g transform="matrix(1,0,0,1,-157.503,0)">
			<path class="st23" d="M171.1,737.1l0.9,5.8c-1.3,5.5-1.4,5.6-4.7,10.2l-5,3.1l-5.8,0.9c-5.5-1.3-5.6-1.4-10.2-4.7l-3.1-5
				l-30.7-122.2l1.8-0.7C133.3,662.2,152.2,699.6,171.1,737.1z"/>
		</g>
		<g transform="matrix(1,0,0,1,-157.503,0)">
			<path class="st23" d="M255.6,867l0.6-1l1.9,5.7l0.5,0.3l-35.8,73.5l-5,4.5l0.1,0.3l-100.1,36.5l-5.8,0.6l-5.5-1.7l-4.4-3.6
				l-2.8-5.2l5.3-1.6l-0.4-3.7c1-3.4,1.1-3.4,3.3-6.2l3.2-1.8l98.3-29.8l2.7,3.2l36.4-65.9l0.5-0.1l-24.4-15.3l-8.2,23.6l-1.5,1.8
				l-0.3-2.4l6.9-27.7l3.5-1.8C235,855.2,245.3,861.1,255.6,867z"/>
		</g>
		<g transform="matrix(1,0,0,1,-157.503,0)">
			<path class="st23" d="M52.2,706.4l22.9,76.8l58.1,101.9l0.8,2.5l-0.2,2.6l-1.1,2.3l-2,1.8l4,7.1l-5.6,1.8
				c-5.7-0.4-5.7-0.5-10.8-3l-3.9-4.4L63,788.9l-0.4-1.9l-12.2-80.2l-0.5-6.6C50.7,702.3,51.5,704.3,52.2,706.4z"/>
		</g>
		<g transform="matrix(1,0,0,1,-157.503,0)">
			<path class="st23" d="M304.2,530.6l1,4.7l3.8,50.8l-3.1,5.3l0.3,0.9l-95,38.7l-5.8,0.6l-5.5-1.6l-4.5-3.5l-2.8-5.2l8-2.5
				l-0.3-2.6c0.7-2.4,0.7-2.4,2.2-4.3l2.2-1.2l93.9-28.6l0.8,0.6l3.8-47.3l0.9-5.9C304.2,529.9,304.2,530.3,304.2,530.6z"/>
		</g>
		<g transform="matrix(1,0,0,1,-157.503,0)">
			<path class="st23" d="M169.5,487.4l-28.3,54.5l0.6,0l47.8,111.3l0.5,2.4l-0.5,2.3l-1.3,2l-2,1.4l3.4,8l-5.8,1.2
				c-5.6-1.1-5.6-1.1-10.4-4.2l-3.3-4.9l-40.5-117.6l1.3-5.1l36.9-52.3l3.5-3.9l0.3-0.5C171,483.8,170.2,485.6,169.5,487.4z"/>
		</g>
		<g transform="matrix(1,0,0,1,-157.503,0)">
			<path class="st23" d="M-14.9,805.6l22.6,98.1l0.4-0.2L117.3,966l2.2,2l1.3,2.6l0.2,2.9l-0.9,2.8l6.3,3.7l-3.9,4.4
				c-5.1,2.5-5.2,2.5-10.8,2.9l-5.6-1.9l-108.3-71l-2.9-5.4l-11.7-103.1l-0.2-6.8l-0.1-0.7C-16.4,800.8-15.6,803.2-14.9,805.6z"/>
		</g>
		<g transform="matrix(1,0,0,1,-157.503,0)">
			<path class="st23" d="M184.6,1122L140,1222.2l-4,4.3l-5.2,2.4l-5.7,0.3l-5.5-2l-4.3-4c-2.4-5.1-2.4-5.2-2.7-10.9l2-5.5L183,1121
				C183.5,1121.3,184.1,1121.7,184.6,1122z"/>
		</g>
		<g transform="matrix(1,0,0,1,-157.503,0)">
			<path class="st23" d="M306.5,601.1l-1.6,3.8l-18.5,30.6l-1.1,1.3l0.1,0.2l-94.3,66.4l-5.6,1.9l-5.7-0.4l-5.1-2.5l-3.9-4.4
				l8.9-5.2l-0.4-3.4l2.1-2.7l98.8-56.7l0.2,0.2l22.9-26.3C303.4,603.7,306.9,600.6,306.5,601.1z"/>
		</g>
		<g transform="matrix(1,0,0,1,-157.503,0)">
			<path class="st23" d="M80.2,577.9l-25.9,66.7l0.5,0l85.4,138.3l0.8,2.1l-0.1,2.2l-0.9,2l-1.7,1.5l4.8,7.8l-5.5,2
				c-5.7-0.2-5.7-0.3-10.9-2.6l-4-4.3L44,647.8l0.4-5l34.1-65.8l2.9-4l0.3-0.6C81.2,574.3,80.7,576.1,80.2,577.9z"/>
		</g>
		<g transform="matrix(1,0,0,1,-157.503,0)">
			<path class="st23" d="M229.4,764.5l9.8,11.9l45.7-7.8l3.4-0.5l-0.5,0.1l-2.8,0.9l-46.3,13.7l-3.2-0.8l-11.8-12.7l-0.9-3l1.5-2.8
				l0.6,0.7l2.4-0.7C228,763.8,228.7,764.2,229.4,764.5z"/>
		</g>
		<g transform="matrix(1,0,0,1,-157.503,0)">
			<path class="st23" d="M287.6,560.4l-16.4,11.1l-13.7,32.1l-1,0.9l-1.3,0l-0.9,2.2l-2.2-2.3l0-3.2l16.1-31.7l0.8-0.7l18.2-9
				l1.6-0.6C288.5,559.7,288.1,560,287.6,560.4z"/>
		</g>
		<g transform="matrix(1,0,0,1,-157.503,0)">
			<path class="st23" d="M118.8,537.1l1.9,36.3l35.6,11.5l1.3,1.1l0.1,1.8l1.7,0.6l-2.1,2.4l-3.2,0.2l-36.5-13.9l-1.3-2.2l1.8-37.9
				l0.3-2.5C118.6,535.4,118.7,536.2,118.8,537.1z"/>
		</g>
		<g transform="matrix(1,0,0,1,-157.503,0)">
			<path class="st23" d="M86.5,654.1l-3.1,44.3l-1.7,2.7l-3.1,0.7l-2.7-1.7l-0.8-3.1L86,654C86.2,654.1,86.3,654.1,86.5,654.1z"/>
		</g>
		<g transform="matrix(1,0,0,1,-157.503,0)">
			<path class="st23" d="M114.9,744.8l2.1,2.4l-0.2,3.1l-2.4,2.1l-28,5.3l-0.2-0.5l25.6-12.6C112.8,744.6,113.9,744.7,114.9,744.8z"
				/>
		</g>
		<g transform="matrix(1,0,0,1,-157.503,0)">
			<path class="st23" d="M87.7,823.1l2.3,2.2l0.1,3.2l-2.2,2.3l-3.2,0.1l-36-17.8l0.2-0.5C61.8,816,74.8,819.5,87.7,823.1z"/>
		</g>
		<g transform="matrix(1,0,0,1,-157.503,0)">
			<path class="st23" d="M149,657.8l-8.1,33.2l-2.2,2.3l-3.2,0.1l-2.3-2.1l-0.1-3.2l15.4-30.5C148.7,657.7,148.9,657.7,149,657.8z"
				/>
		</g>
		<g transform="matrix(1,0,0,1,-157.503,0)">
			<path class="st23" d="M220.7,731.6l-7.5,38l-2,2.4l-3.2,0.3l-2.4-2l-0.3-3.1l14.9-35.7C220.3,731.5,220.5,731.6,220.7,731.6z"/>
		</g>
		<g transform="matrix(1,0,0,1,-157.503,0)">
			<path class="st23" d="M175.8,925.1l-4.7,35.1l-1.9,2.5l-3.1,0.5l-2.5-1.9l-0.5-3.1l12.2-33.2C175.5,925,175.7,925.1,175.8,925.1z
				"/>
		</g>
		<g transform="matrix(1,0,0,1,-157.503,0)">
			<path class="st23" d="M218.9,947.2l-0.8,3.1l-2.7,1.6l-3.1-0.8l-1.6-2.7l-1.8-42.6l0.5-0.1C212.6,919.5,215.8,933.3,218.9,947.2z
				"/>
		</g>
		<g transform="matrix(1,0,0,1,-157.503,0)">
			<path class="st23" d="M269.3,908.3l0,0.5l-37.1,6.4l-3-1l-1.4-2.8l1-3l2.8-1.4C244.2,906.1,256.8,907.8,269.3,908.3z"/>
		</g>
		<g transform="matrix(1,0,0,1,-157.503,0)">
			<path class="st23" d="M184.8,956l19.9,24.6l-0.4,0.4l-25.3-19l-1.2-2.9l1.2-3l2.9-1.3C182.8,955.3,183.8,955.6,184.8,956z"/>
		</g>
		<g transform="matrix(1,0,0,1,-157.503,0)">
			<path class="st23" d="M79.4,952.3l-0.5,3.1l-2.6,1.9l-3.1-0.5l-1.8-2.6l-5.1-38.5l0.5-0.1C71,927.8,75.2,940,79.4,952.3z"/>
		</g>
	</g>
	<g transform="matrix(1,0,0,1,-157.503,0)">
		<path class="st24" d="M233.7,517.5c12.9,0,21.9,12.7,17.6,24.8c-39,111.4-127.3,385.3-119.5,558.8
			c9.9,222,182.9,351.6,182.9,351.6l-232.4-17.6c0,0-31-96.6,0-387.6C106.8,817,185,606.6,216.4,529.2
			C219.3,522.2,226.1,517.5,233.7,517.5L233.7,517.5z"/>
	</g>
	<path class="st24" d="M990.4,489.8c7.7,0,14.5,4.7,17.4,11.8c31.8,80,113.9,315.3,138.4,545.9c31,291,0,387.6,0,387.6l-232.4,17.6
		c0,0,173-129.6,182.9-351.6c7.8-173.8-84.5-471.9-124-586.6C968.5,502.5,977.6,489.8,990.4,489.8L990.4,489.8z"/>
	<path class="st22" d="M1011.7,1008.8l-263.2,152.5l-3.1,0.4l-2.5-2l-0.4-3.1l1.9-2.5l267.1-145.8l3.7-1.8
		C1014.1,1007.3,1012.9,1008.1,1011.7,1008.8z"/>
	<g transform="matrix(-1,0,0,1,3124.54,22.1954)">
		<path class="st22" d="M3122.7,943.5l-352.8,210.7l-1.9,2.6l0.5,3.1l2.6,1.9l3.1-0.5L3123,944l3.4-2.4
			C3125.2,942.2,3124,942.9,3122.7,943.5z"/>
	</g>
	<path class="st23" d="M1118.5,1370.8c-48.5,12.9-56.5,13.9-75.3,14.9c-18.8,1-82.2,2-121.9,2c-39.6,0-42.6,8.9-58.4,13.9
		c-15.9,5-67.4,6.9-85.2,3c-17.8-4-31.7-1-54.5,3c-22.8,4-55.4,13.8-81.2,13.8c-25.8,0-81.2-6.9-105.3-10.9
		c-24.1-4-52.2-5.9-75.9-4.9c-23.8,1-70.3,12.9-90.6,13.8c-20.3,0.9-60-12.8-117.4-21.7c-57.5-8.9-23.8,0-95.4-4.9
		c-51.5-3.5-234-29.1-332.7-43.3c-26.6,55.2-61.3,107.2-104.2,154.3l-165.2,181.2h1565.8h59h14.9V1670v-27.1v-287.1
		C1177.9,1357.7,1154,1361.3,1118.5,1370.8z"/>
</g>
<g>
	<path d="M246.2,96.7c-0.2-0.5-0.4-1.1-0.6-1.6s-0.3-1.1-0.4-1.7c-1,1.2-2.3,2.1-3.7,2.8s-3.1,1.1-5,1.1c-3.1,0-5.6-0.8-7.4-2.5
		s-2.7-4-2.7-6.9c0-3,1.2-5.3,3.6-6.9s5.9-2.4,10.5-2.4h4.4v-3.1c0-1.5-0.4-2.7-1.3-3.5s-2.2-1.3-3.9-1.3c-1,0-1.8,0.1-2.6,0.3
		s-1.4,0.5-1.8,0.8l-0.6,3.4H228l0-7c1.6-1.1,3.4-1.9,5.4-2.7s4.2-1.1,6.6-1.1c3.9,0,7.1,1,9.6,2.9s3.7,4.7,3.7,8.2v13.1
		c0,0.5,0,0.9,0,1.4s0,0.8,0.1,1.2l2.6,0.4v5.1H246.2z M238.7,91c1.3,0,2.5-0.3,3.5-0.8s1.9-1.3,2.5-2.1v-4.8h-4.4
		c-1.8,0-3.2,0.4-4.1,1.3s-1.4,1.9-1.4,3.1c0,1.1,0.3,1.9,1,2.5S237.5,91,238.7,91z"/>
	<path d="M259.5,81.1c0-5,1.1-9,3.3-12.1s5.2-4.6,9.2-4.6c1.8,0,3.3,0.4,4.7,1.2s2.5,1.9,3.5,3.4l0.6-4h7.4v30.8
		c0,4.2-1.3,7.5-3.9,10s-6.2,3.7-10.8,3.7c-1.6,0-3.3-0.2-5.1-0.7s-3.5-1-5-1.8l1.6-6c1.4,0.6,2.7,1,4.1,1.4s2.8,0.5,4.3,0.5
		c2.1,0,3.7-0.6,4.7-1.9s1.6-3,1.6-5.3v-2.1c-0.9,1.2-2,2.1-3.3,2.7s-2.7,0.9-4.4,0.9c-3.9,0-6.9-1.4-9.1-4.3s-3.3-6.6-3.3-11.3
		V81.1z M268,81.8c0,2.8,0.5,5,1.4,6.5s2.5,2.4,4.6,2.4c1.3,0,2.4-0.2,3.3-0.7s1.6-1.2,2.2-2.1V74.1c-0.5-1-1.3-1.7-2.2-2.2
		s-2-0.8-3.3-0.8c-2.1,0-3.6,0.9-4.6,2.8s-1.5,4.3-1.5,7.3V81.8z"/>
	<path d="M292.9,91.6l4.1-0.9V71.1l-4.6-0.9V65h13.1v25.7l4.1,0.9v5.1h-16.8V91.6z M305.6,57.4h-8.6V51h8.6V57.4z"/>
	<path d="M311.6,56.2V51h13.1v39.7l4.1,0.9v5.1h-16.8v-5.1l4.1-0.9V57.1L311.6,56.2z"/>
	<path d="M346.8,97.4c-4.6,0-8.2-1.5-11-4.4s-4.1-6.7-4.1-11.2v-1.2c0-4.7,1.3-8.6,3.9-11.6s6.1-4.6,10.4-4.5c4.3,0,7.6,1.3,10,3.9
		s3.5,6.1,3.5,10.5v4.7h-18.9l-0.1,0.2c0.2,2.1,0.9,3.8,2.1,5.2s2.9,2,5.1,2c1.9,0,3.5-0.2,4.7-0.6s2.6-1,4.1-1.8l2.3,5.3
		c-1.3,1-3,1.9-5.1,2.6S349.4,97.4,346.8,97.4z M346.1,71c-1.6,0-2.8,0.6-3.8,1.8s-1.5,2.8-1.7,4.8l0.1,0.1h10.5V77
		c0-1.8-0.4-3.3-1.3-4.4S347.8,71,346.1,71z"/>
	<path d="M371.8,96.7H366v-5.9h5.8V96.7z"/>
	<path d="M378.8,68.8V65h9.9l0.6,4.6c0.9-1.6,2-2.9,3.3-3.8s2.8-1.4,4.5-1.4c0.4,0,0.9,0,1.4,0.1s0.8,0.1,1.1,0.2l-0.8,5.4l-3.3-0.2
		c-1.5,0-2.8,0.4-3.8,1.1s-1.8,1.7-2.4,3v18.2l4.8,0.8v3.7h-15.3V93l4.8-0.8V69.6L378.8,68.8z"/>
	<path d="M417.6,97.4c-4.4,0-7.9-1.5-10.5-4.4s-3.9-6.8-3.9-11.4v-1.3c0-4.5,1.3-8.3,4-11.3s5.9-4.5,9.5-4.5c4.3,0,7.5,1.3,9.7,3.9
		s3.3,6,3.3,10.3v3.6h-20.6l-0.1,0.1c0.1,3,0.8,5.6,2.3,7.5s3.6,2.9,6.2,2.9c2,0,3.7-0.3,5.1-0.8s2.7-1.3,3.8-2.3l2.3,3.8
		c-1.1,1.1-2.6,2-4.5,2.8S420.2,97.4,417.6,97.4z M416.7,69c-1.9,0-3.6,0.8-5,2.4s-2.2,3.7-2.5,6.1l0.1,0.1h14.6V77
		c0-2.3-0.6-4.2-1.8-5.7S419.1,69,416.7,69z"/>
	<path d="M434.6,105.2l4.8-0.8V69.6l-4.8-0.8V65h9.7l0.5,3.9c1.1-1.4,2.3-2.5,3.9-3.3s3.3-1.1,5.3-1.1c3.9,0,7,1.6,9.2,4.7
		s3.3,7.2,3.3,12.3v0.6c0,4.6-1.1,8.3-3.3,11.1s-5.2,4.2-9.1,4.2c-2,0-3.7-0.3-5.1-1s-2.7-1.6-3.8-2.9v10.9l4.8,0.8v3.7h-15.3V105.2
		z M460.6,81.5c0-3.6-0.7-6.6-2.1-8.9s-3.5-3.5-6.3-3.5c-1.6,0-3,0.4-4.2,1.1s-2.1,1.8-2.8,3v15.4c0.7,1.3,1.7,2.3,2.8,3
		s2.6,1.1,4.3,1.1c2.7,0,4.8-1,6.2-3s2.1-4.6,2.1-7.8V81.5z"/>
	<path d="M492.4,96.7c-0.2-0.9-0.3-1.6-0.4-2.3s-0.2-1.4-0.2-2.1c-1.1,1.4-2.5,2.6-4.2,3.6s-3.5,1.4-5.3,1.4c-3.3,0-5.8-0.8-7.5-2.4
		s-2.6-3.9-2.6-6.8c0-3,1.2-5.3,3.6-7s5.8-2.4,10-2.4h5.9V75c0-1.9-0.6-3.3-1.8-4.4s-2.8-1.6-4.9-1.6c-1.4,0-2.7,0.2-3.8,0.6
		s-2,0.9-2.7,1.5l-0.6,3.3h-4.5v-6.2c1.4-1.2,3.2-2.1,5.2-2.8s4.3-1,6.7-1c3.6,0,6.5,0.9,8.7,2.8s3.3,4.5,3.3,7.9v15.3
		c0,0.4,0,0.8,0,1.2s0,0.8,0.1,1.2l2.3,0.3v3.7H492.4z M483.1,92.5c1.9,0,3.7-0.5,5.2-1.4s2.7-2,3.4-3.3v-5.2h-6.2
		c-2.4,0-4.2,0.5-5.6,1.6s-2.1,2.4-2.1,4c0,1.4,0.4,2.4,1.3,3.2S481.3,92.5,483.1,92.5z"/>
	<path d="M504.7,93l4.8-0.8V69.6l-4.8-0.8V65h10.5v27.2L520,93v3.7h-15.3V93z M515.3,56.9h-5.8V51h5.8V56.9z"/>
	<path d="M524.4,68.8V65h9.9l0.6,4.6c0.9-1.6,2-2.9,3.3-3.8s2.8-1.4,4.5-1.4c0.4,0,0.9,0,1.4,0.1s0.8,0.1,1.1,0.2l-0.8,5.4l-3.3-0.2
		c-1.5,0-2.8,0.4-3.8,1.1s-1.8,1.7-2.4,3v18.2l4.8,0.8v3.7h-15.3V93l4.8-0.8V69.6L524.4,68.8z"/>
</g>
<g>
	<g>
		<path d="M284.4,317.3l9.3-49.3H308l-15.4,69.2h-14.4L267,290.9l-11.3,46.3h-14.4L226,268h14.2l9.4,49.2L261,268h12.1L284.4,317.3z
			"/>
		<path d="M357.3,307.2H330v18.5h32.1v11.5h-46.4V268H362v11.6H330V296h27.4V307.2z"/>
		<path d="M373.5,289.2l-6.5-3.8c2.7-4.3,4.1-8.7,4.2-13.3v-8h10.9v7.4c0,2.9-0.8,5.9-2.4,9.3C378.3,284.2,376.1,287,373.5,289.2z"
			/>
		<path d="M418.4,320.1l15.7-52.1H450l-24.1,69.2H411L387,268h15.8L418.4,320.1z"/>
		<path d="M498.2,307.2h-27.4v18.5h32.1v11.5h-46.4V268h46.3v11.6h-32.1V296h27.4V307.2z"/>
		<path d="M535.5,337.2V268h24.3c8.4,0,14.8,1.6,19.1,4.8c4.3,3.2,6.5,7.9,6.5,14.1c0,3.4-0.9,6.4-2.6,9c-1.7,2.6-4.2,4.5-7.3,5.7
			c3.6,0.9,6.3,2.7,8.4,5.4c2,2.7,3.1,6,3.1,9.9c0,6.7-2.1,11.7-6.4,15.1c-4.2,3.4-10.3,5.2-18.2,5.2H535.5z M549.8,297h10.6
			c7.2-0.1,10.8-3,10.8-8.6c0-3.1-0.9-5.4-2.7-6.8c-1.8-1.4-4.7-2.1-8.6-2.1h-10V297z M549.8,307.1v18.7H562c3.4,0,6-0.8,7.9-2.4
			c1.9-1.6,2.8-3.8,2.8-6.6c0-6.3-3.3-9.6-9.8-9.7H549.8z"/>
		<path d="M639.3,307.2H612v18.5h32.1v11.5h-46.4V268H644v11.6H612V296h27.4V307.2z"/>
		<path d="M694.1,307.2h-27.4v18.5h32.1v11.5h-46.4V268h46.3v11.6h-32.1V296h27.4V307.2z"/>
		<path d="M763.6,337.2h-14.3l-27.8-45.6v45.6h-14.3V268h14.3l27.8,45.7V268h14.2V337.2z"/>
	</g>
	<g>
		<path d="M272.2,394.9h-27.4v18.5h32.1v11.5h-46.4v-69.2h46.3v11.6h-32.1v16.5h27.4V394.9z"/>
		<path d="M310.1,379.5l13-23.9h16.4L319.3,390l20.7,34.9h-16.6l-13.3-24.3l-13.3,24.3h-16.6l20.7-34.9l-20.2-34.3h16.4L310.1,379.5
			z"/>
		<path d="M361.4,400.5v24.4h-14.3v-69.2h27c5.2,0,9.8,1,13.7,2.9s7,4.6,9.1,8.1c2.1,3.5,3.2,7.5,3.2,12c0,6.8-2.3,12.1-7,16
			c-4.6,3.9-11.1,5.9-19.3,5.9H361.4z M361.4,388.9h12.7c3.8,0,6.6-0.9,8.6-2.7c2-1.8,3-4.3,3-7.6c0-3.4-1-6.1-3-8.2
			s-4.8-3.2-8.3-3.2h-13.1V388.9z"/>
		<path d="M451.6,394.9h-27.4v18.5h32.1v11.5H410v-69.2h46.3v11.6h-32.1v16.5h27.4V394.9z"/>
		<path d="M519.1,401.8c-0.5,7.5-3.3,13.3-8.3,17.6c-5,4.3-11.5,6.4-19.6,6.4c-8.9,0-15.9-3-20.9-9c-5.1-6-7.6-14.2-7.6-24.6V388
			c0-6.7,1.2-12.5,3.5-17.6c2.3-5.1,5.7-9,10.1-11.7c4.4-2.7,9.4-4.1,15.2-4.1c8,0,14.4,2.1,19.3,6.4c4.9,4.3,7.7,10.3,8.5,18H505
			c-0.3-4.5-1.6-7.7-3.7-9.7c-2.1-2-5.4-3-9.8-3c-4.8,0-8.3,1.7-10.7,5.1c-2.4,3.4-3.6,8.7-3.6,15.9v5.2c0,7.5,1.1,13,3.4,16.4
			c2.3,3.5,5.8,5.2,10.7,5.2c4.4,0,7.7-1,9.9-3c2.2-2,3.4-5.1,3.7-9.3H519.1z"/>
		<path d="M579.2,367.2H558v57.7h-14.3v-57.7h-20.9v-11.6h56.4V367.2z"/>
		<path d="M602.5,424.9h-14.3v-69.2h14.3V424.9z"/>
		<path d="M672.1,424.9h-14.3L630,379.3v45.6h-14.3v-69.2H630l27.8,45.7v-45.7h14.2V424.9z"/>
		<path d="M739.3,416.1c-2.6,3.1-6.2,5.5-10.9,7.2c-4.7,1.7-9.9,2.5-15.6,2.5c-6,0-11.2-1.3-15.8-3.9s-8-6.4-10.5-11.4
			c-2.5-5-3.7-10.8-3.8-17.5v-4.7c0-6.9,1.2-12.9,3.5-18c2.3-5.1,5.7-8.9,10.1-11.6c4.4-2.7,9.5-4,15.4-4c8.2,0,14.6,2,19.3,5.9
			c4.6,3.9,7.4,9.6,8.2,17.1h-13.9c-0.6-4-2-6.9-4.2-8.7c-2.2-1.8-5.2-2.8-9-2.8c-4.9,0-8.5,1.8-11.1,5.5c-2.5,3.6-3.8,9.1-3.9,16.3
			v4.4c0,7.3,1.4,12.7,4.1,16.5c2.8,3.7,6.8,5.6,12.1,5.6c5.4,0,9.2-1.1,11.5-3.4V399h-13v-10.5h27.2V416.1z"/>
	</g>
	<g>
		<path d="M254.4,474.5l14.4-31.2h15.6l-22.7,44.1v25.1h-14.5v-25.1l-22.7-44.1h15.6L254.4,474.5z"/>
		<path d="M346.2,479.5c0,6.8-1.2,12.8-3.6,17.9c-2.4,5.1-5.9,9.1-10.3,11.9c-4.5,2.8-9.6,4.2-15.4,4.2c-5.7,0-10.9-1.4-15.4-4.1
			c-4.5-2.8-8-6.7-10.5-11.8c-2.5-5.1-3.7-11-3.8-17.7v-3.4c0-6.8,1.2-12.8,3.7-18c2.5-5.2,5.9-9.2,10.4-11.9
			c4.5-2.8,9.6-4.2,15.4-4.2c5.8,0,10.9,1.4,15.4,4.2c4.5,2.8,8,6.8,10.4,11.9c2.5,5.2,3.7,11.2,3.7,18V479.5z M331.8,476.3
			c0-7.3-1.3-12.8-3.9-16.5c-2.6-3.8-6.3-5.7-11.1-5.7c-4.8,0-8.5,1.9-11.1,5.6c-2.6,3.7-3.9,9.2-3.9,16.4v3.4
			c0,7.1,1.3,12.6,3.9,16.5c2.6,3.9,6.3,5.8,11.2,5.8c4.8,0,8.5-1.9,11-5.6c2.6-3.8,3.9-9.2,3.9-16.4V476.3z"/>
		<path d="M409,443.3v45.6c0,7.6-2.4,13.6-7.1,18c-4.7,4.4-11.2,6.6-19.4,6.6c-8.1,0-14.5-2.1-19.3-6.4c-4.8-4.3-7.2-10.2-7.3-17.6
			v-46.1h14.3V489c0,4.5,1.1,7.8,3.3,9.9c2.2,2.1,5.2,3.1,9,3.1c8,0,12.1-4.2,12.2-12.6v-46.1H409z"/>
	</g>
</g>
</svg>
