<?xml version="1.0" encoding="utf-8"?>
<!-- Generator: Adobe Illustrator 23.0.1, SVG Export Plug-In . SVG Version: 6.00 Build 0)  -->
<svg version="1.1" id="Illustration" xmlns="http://www.w3.org/2000/svg" xmlns:xlink="http://www.w3.org/1999/xlink" x="0px"
	 y="0px" viewBox="0 0 1947.2 1173.9" style="enable-background:new 0 0 1947.2 1173.9;" xml:space="preserve">
<style type="text/css">
	.st0{fill:#FFB37C;}
	.st1{fill:#FFA585;}
	.st2{fill:#A38582;}
	.st3{fill:#E49F8C;}
	.st4{fill:#1C2836;}
	.st5{fill:#C9988E;}
	.st6{fill:#25313E;}
	.st7{fill:#303B48;}
	.st8{fill:#293542;}
	.st9{fill:#3A5161;}
	.st10{clip-path:url(#SVGID_2_);}
	.st11{fill:#2C3744;}
	.st12{opacity:0.7;}
	.st13{fill:#FF8A5A;}
	.st14{opacity:0.48;}
	.st15{fill:#FFFFFF;}
	.st16{fill:#070C19;}
	.st17{fill:#F46640;}
	.st18{fill:#FF784C;}
	.st19{fill:#ED7858;}
	.st20{fill:#FC8768;}
	.st21{fill:#E57253;}
	.st22{fill:#020714;}
	.st23{fill:#0C101E;}
	.st24{fill:#0F1320;}
</style>
<g id="Layer3">
</g>
<g>
	<polygon class="st0" points="749.5,498.3 2005.2,498.3 1911.4,868.9 843.3,868.9 	"/>
	<path class="st1" d="M749.5,378.4c0,0,353.9-50.7,627.9-50.7c286.8,0,627.9,50.7,627.9,50.7v119.9c0,0-470.2,56.3-627.9,56.3
		s-627.9-56.3-627.9-56.3V378.4z"/>
	<path class="st2" d="M1457.7,598.3c0,0-20.4-19.3-32.7-31c-5.8-5.5-13.9-8.1-21.9-6.8c-0.1,0-0.2,0-0.4,0.1
		c-11.4,1.8-22.7-4.1-27.6-14.6c-4.5-9.6-10-21.6-14.9-32c-2.6-5.6-7.7-9.7-13.8-11s-12.4,0.4-17.1,4.4l0,0
		c-6.6,5.7-16.3,5.3-22.3-0.9c-6.1-6.2-13.3-13.8-18.2-18.8c-3.2-3.3-8.3-4-12.2-1.7l0,0c-4,2.3-9,1.8-12.5-1.3
		c-7.5-6.7-20.6-18.5-30.5-27.3c-3-2.6-7-3.8-11-2.9c-3.9,0.8-7.2,3.5-8.9,7.1l0,0c-1.4,3.2-4.5,5.3-8,5.6c-3.5,0.3-6.8-1.3-8.8-4.2
		c-4-5.9-8.7-12.8-12.9-19c-3.2-4.6-8.2-7.7-13.7-8.4c-5.5-0.8-11.2,0.8-15.4,4.5l0,0c-3.1,2.5-7.4,2.8-10.7,0.5
		c-16.9-11.6-66.7-46-66.7-46s-6.8,101.5,0,150.3c6.9,48.8,32.4,131.5,67.8,156.4c35.5,24.9,59.9,31,138.1,43.1
		c78,12.3,133.2,20.6,150.8,25.2c17.6,4.6,53.1-16.4,50.7-29.3"/>
	<path class="st3" d="M2007.8,462.3c0,0-170.9-86.4-206.3-104.2c-3.8-1.9-8.3-1.1-11.3,1.9c-22.8,23.2-116.2,118.1-116.2,118.1
		s-8.3-9.1-18.5-20.3c-8.3-9.1-20.5-13.3-32.6-11.4c-12.1,1.9-22.4,9.8-27.6,21c-7.1,15.9-14.4,31.6-18.8,41.4
		c-1.1,2.4-3.2,4.2-5.7,5c-2.5,0.8-5.3,0.4-7.5-1.1l0,0c-4.1-2.7-9.7-1.5-12.3,2.5c-4.2,6.5-10.3,15.7-14.5,22.1
		c-2.7,4.2-8.3,5.3-12.6,2.6l0,0c-2.3-1.4-4.9-1.9-7.4-1.1c-2.5,0.7-4.6,2.4-5.8,4.8c-2.2,4.5-4.8,9.9-6.8,14.2
		c-0.9,1.9-2.6,3.3-4.7,3.8c-2.1,0.6-4.2,0.2-6-0.9l0,0c-1.8-1.1-3.9-1.5-5.9-0.9c-2.1,0.6-3.7,1.9-4.7,3.8
		c-2.9,5.8-7.1,14.1-10.3,20.5c-1.2,2.4-3.5,4.3-6.2,5.1c-2.7,0.8-5.5,0.3-7.9-1.2c-0.1-0.1-0.2-0.1-0.3-0.2c-2.4-1.6-5.4-2-8.3-1.1
		c-2.8,0.8-5,3-6.1,5.7c-4.5,11.4-11.3,28.8-15,38.1c-0.5,1-1.4,1.8-2.6,1.8c-1.1,0-2.2-0.7-2.7-1.7l0,0c-0.5-1.1-1.6-1.8-2.8-1.8
		c-1.2,0-2.3,0.8-2.8,1.8c-5.6,12.6-18.5,41.3-25,56c-0.6,1.3-2,2.2-3.5,2.1c-1.5-0.1-2.7-1.1-3.1-2.6l0,0c-0.5-1.7-1.9-3-3.6-3.4
		c-1.8-0.3-3.5,0.5-4.5,1.9c-9.8,14.2-29.4,42.9-37.6,55c-0.7,1-2,1.5-3.2,1.3c-1.2-0.2-2.3-1.1-2.5-2.3l0,0
		c-0.4-1.3-1.4-2.3-2.7-2.6c-1.3-0.3-2.7,0.2-3.6,1.2c-6.2,7.2-17.4,20.3-22.6,26.5c-0.8,0.8-1.9,1.4-3,1.3c-1.1,0-2.3-0.6-2.9-1.4
		l0,0c-1.1-1.4-2.9-2.2-4.8-2c-1.8,0.2-3.4,1.3-4.1,3c-2.3,5.1-5.3,11.3-6.4,13.7c-0.4,0.8-0.8,1.4-1.2,2
		c-7.9,9.8-76.8,95.3-76.8,95.3h801.2"/>
	<path class="st4" d="M1642.2,846.6h-13.3l6.7-159.4l3.5,84l5.3-98.5l4.1,76.6l6-89.6l5.9,87.2l7.4-103.1l6.6,91.9l9.2-111.4
		l8.3,101.6l8.3-100.6l6.7,80.8l4-70.6l2.3,40.7l5-86.8l8.2,143.2l10-175.5l7.1,125.7l5.3-93l4.7,83l6.7-117.3l5.9,104l4.5-78
		l7.1,125.9l9.9-174.7l6.8,118.1l4.7-82.3l2.3,40.3l5-87.1l9.7,169.6l8-140l6.8,118.9l5.2-90.5l4.2,74.7l6.1-107.4l11.4,201.3
		l12.9-226.7l12.2,214.5l13.2-231.7l13.2,231.8l9.7-168.9l8,140l11.7-206l12.2,214l10.1-177.7l7.4,129.6l11.3-198.2l6.6,116
		l2.7-47.9l9.3,163.3l9.2-161v334.8H1980v0.6h-38.5l2.1-36.4h-9.5l2.1,37h-35.1l2-33.9h-14.4l0.9,17.2h-25.9l0.9,16.7h-168l1.8-31.8
		h-16.8l0.1-1h-0.3v0.4h-28.5l0.1-0.8h-0.2l0.1,2.3h-11.3L1642.2,846.6z"/>
	<path class="st5" d="M722.4,441.9l145.5-84c3.2-1.8,7.1-1.7,10.1,0.3c32.2,20.9,209.6,136.1,241.8,157c3.1,2,6.9,2.1,10.1,0.3
		c1.8-1,3.8-2.2,5.7-3.3c4.2-2.4,9.8-1.3,12.7,2.6c4.9,6.7,12.3,16.6,17.3,23.3c2.9,3.9,8.3,5.1,12.7,2.6c0.8-0.5,1.5-0.8,2.3-1.3
		c2.3-1.3,5-1.7,7.5-0.9s4.7,2.4,5.9,4.7c2.4,4.5,5.4,9.9,7.9,14.4c1.1,2.1,3.1,3.7,5.4,4.3c2.3,0.7,4.8,0.4,6.8-0.8l0,0
		c2.1-1.2,4.5-1.5,6.8-0.8c2.3,0.7,4.2,2.2,5.4,4.2c3.5,6.2,8.4,14.8,12,21.2c1.3,2.3,3.4,3.9,5.9,4.6c2.5,0.7,5.2,0.4,7.4-0.9
		c1.3-0.8,2.7-1.6,4-2.3c2.3-1.4,5.3-1.7,7.9-0.8c2.6,0.8,4.8,2.8,5.9,5.3c5.1,11.3,13.1,29.6,17.4,39.3c0.5,1.1,1.7,2,2.9,2
		c1.3,0,2.4-0.7,3-1.8l0,0c0.6-1.2,1.8-1.9,3.1-1.9s2.5,0.8,3.1,2c6.1,12.2,19.9,39.3,27.5,54.4c0.8,1.7,2.7,2.7,4.6,2.5
		c1.9-0.2,3.6-1.5,4-3.4l0,0c0.5-1.5,1.7-2.6,3.2-2.9c1.5-0.3,3.1,0.3,4,1.5c10.4,13.5,34.2,44.3,44,56.8c0.8,1,2.2,1.6,3.5,1.3
		c1.3-0.3,2.4-1.2,2.8-2.4l0,0c0.5-1.4,1.6-2.4,3-2.7c1.4-0.4,2.9,0.1,3.8,1.1c7.3,7.6,21,21.8,26.6,27.6c0.7,0.7,1.6,1,2.5,1
		s1.9-0.5,2.5-1.1l0,0c1.6-1.7,3.8-2.5,6.2-2.3c2.3,0.3,4.3,1.7,5.4,3.8c2.5,4.8,5.3,10.1,6.6,12.4c0.4,0.8,0.8,1.4,1.4,2l86.8,95.3
		H756.9C799,733.9,788.4,579,722.4,441.9z"/>
	<path class="st6" d="M774.5,608.2l1.6-28l9.9,173.7l9.3-163.3l2.7,47.9l6.7-116L816,720.7l7.4-129.6l10,177.8l12.2-214l11.7,206
		l8-140l9.7,168.9l13.2-231.8l13.2,231.7l12.3-214.5l12.9,226.7l11.4-201.3l6.1,107.4l4.2-74.7l5.2,90.5l6.8-118.9l8,140l9.8-169.7
		l5,87.1l2.3-40.3l4.7,82.3l6.8-118.1l9.9,174.7l7.2-125.9l4.4,78l5.9-104l6.7,117.3l4.8-83l5.3,93l7.1-125.7l10,175.5l8.2-143.2
		l5,86.8l2.3-40.7l4,70.6l6.7-80.8l8.3,100.6l8.3-101.6l9.2,111.4l6.6-91.9l7.4,103.1l5.9-87.2l6,89.6l4.1-76.6l5.3,98.5l3.5-84
		l5.6,135.3H757C782.6,789.1,788.7,697.6,774.5,608.2z"/>
	<path class="st7" d="M1864.6,705.5l2.7-47.9l9.3,163.3l9.9-173.6l7.7,134.5l8.9-156.8l19.2,336.8h-17.9l1.3,22.3H1886l0.6,10.4h-28
		v0.6h-38.5l2.1-36.4h-9.4l3.8,65.9H1778l3.6-62.8h-14.4l0.9,17.2h-25.9l1.4,25.4h-12.3l1.9,32.7h-38.5l0.7-11.3H1667l0.8,13h-22.3
		l0.5,8.3h-38.5v-0.6h-2.2l2.6,46.1h-38.5l7.3-128.9H1560l0.1-1h-0.3v0.4h-28.5l0.1-0.8h-0.2l0.1,2.3h-11.3l0.1,2h-13.3l6.7-159.4
		l3.5,84l5.3-98.5l4.1,76.6l6-89.6l5.9,87.2l7.4-103.1l6.6,91.9l9.2-111.4l8.3,101.6l8.3-100.6l6.7,80.9l4-70.6l2.3,40.7l5-86.8
		L1604,853l10-175.5l7.1,125.6l5.3-93l4.8,83l6.7-117.3l5.9,104l4.5-78l7.2,125.9l9.9-174.7l6.8,118.1l4.7-82.3l2.3,40.3l5-87.1
		l9.7,169.6l8-140l6.8,118.9l5.2-90.5l4.2,74.7l6.1-107.4l11.4,201.3l12.9-226.7l12.2,214.5l13.2-231.7l13.2,231.8l9.7-168.9l8,140
		l11.7-206l12.2,214l10.1-177.7l7.4,129.6l11.3-198.2L1864.6,705.5z M1695.5,1008.6l0.6,9.2l0.6-9.2H1695.5z"/>
	<g transform="matrix(-1,0,0,1,3180.56,54.0829)">
		<path class="st8" d="M2187.7,633.2l2.7-47.9l9.3,163.3l9.9-173.6l7.7,134.5l8.9-156.8l19.2,336.8h-17.9l1.3,22.3h-19.8l0.6,10.4
			h-28v0.6h-38.5l2.1-36.4h-9.5l3.8,65.9H2101l3.6-62.8h-14.4l0.9,17.2h-25.9l1.5,25.4h-12.3l1.9,32.7h-38.5l0.7-11.3H1990l0.8,13
			h-22.3l0.5,8.3h-38.5v-0.6h-2.2l2.6,46.1h-38.5l7.3-128.9H1883l0.1-1h-0.3v0.4h-28.5l0.1-0.8h-0.2l0.1,2.3h-11.3l0.1,2h-13.3
			l6.7-159.4l3.5,84l5.3-98.5l4.1,76.6l6-89.6l5.9,87.2l7.4-103.1l6.6,91.9l9.2-111.4l8.3,101.6l8.3-100.6l6.7,80.9l4-70.6l2.3,40.7
			l5-86.8l8.2,143.2l10-175.5l7.1,125.6l5.3-93l4.8,83l6.7-117.3l5.9,104l4.5-78l7.2,125.9l9.9-174.7l6.8,118.1l4.7-82.3l2.3,40.3
			l5-87.1l9.7,169.6l8-140l6.8,118.9l5.2-90.5l4.2,74.7l6.1-107.4l11.4,201.3l12.9-226.7l12.2,214.5l13.2-231.7l13.2,231.8
			l9.7-168.9l8,140l11.7-206l12.2,214l10.1-177.7l7.4,129.6l11.3-198.2L2187.7,633.2z M2018.5,936.2l0.6,9.2l0.6-9.2H2018.5z"/>
	</g>
	<path class="st9" d="M2007.8,870.6v219.5H667.3v-32.9c41.6-57.3,72-120.5,91.1-186.6H2007.8z"/>
	<g>
		<g>
			<defs>
				<path id="SVGID_1_" d="M2007.8,870.6v219.5H667.3v-32.9c41.6-57.3,72-120.5,91.1-186.6H2007.8z"/>
			</defs>
			<clipPath id="SVGID_2_">
				<use xlink:href="#SVGID_1_"  style="overflow:visible;"/>
			</clipPath>
			<g class="st10">
				<g transform="matrix(-0.48574,0,0,1,1922.02,37.4374)">
					<path class="st11" d="M2445.6,881.6l-485.9,8l485.9,0.9"/>
				</g>
				<g transform="matrix(-0.917087,0,0,1,2864.73,61.6427)">
					<path class="st11" d="M2333,880.1l-485.9,8L2333,889"/>
				</g>
			</g>
		</g>
	</g>
	<g transform="matrix(1,0,0,-1,0,1855.33)" class="st12">
		<path class="st13" d="M757,989.5l-0.1,0.2l0.1-0.4V989.5z M757.5,988l-0.1,0.2L757.5,988L757.5,988z M758,986.5l-0.1,0.2l0.1-0.4
			V986.5z M758.3,985.1c24.6-85.1,30.1-174.8,16.1-262.5l1.6-28l9.9,173.7l9.3-163.3L798,753l6.7-116L816,835.1l7.4-129.6l10,177.7
			l12.2-214l11.7,206l8-140l9.7,168.9l13.2-231.8L901.5,904l12.3-214.5l12.9,226.7l11.4-201.3l6.1,107.4l4.2-74.7l2.1,36.8l3.7-63.4
			l3.1,53.7l3.2-55.5l5.9,103.1l4.5-79l2.1,36.9l5.2-90.6l5,87.1l2.3-40.3l2.8,49.6l1.9-32.3l1.9,32.5l4.9-85.8l0.8,15.4l1.7-30.2
			l9.1,159.4l5.4-95.7l2.3,38.8l2-34l2.3,39.2l4-70.1l6.7,117.3l4.8-83l1.2,21.1l3.5-60.9l4.1,71.9l3.7-64.8l7.7,134.2l4.3-75.2
			l2.3,41.3l3.8-68l5,86.8l2.3-40.7l2.3,40.9l7-123.1l9.8,170.7l8.3-99.8l2.6,31.9l4.9-85.6l6,104.9l2.3-31.6l7.4,103.1l1.1-16.4
			l7.7-134.5l5.8,102.5l1.4-25.9l0.3,5.9l2.8-49.8l4.6,81.4l0.9-23.1l0.6,14.1l5.7-100.8l8,140l9.7-169.6l5,87.1l2.3-40.3l4.7,82.3
			l6.8-118.1l9.9,174.7l7.1-125.9l4.5,78l5.9-104l6.7,117.3l4.7-83l5.3,93l7.2-125.7l10,175.5l8.2-143.2l5,86.8l2.3-40.7l4,70.6
			l6.7-80.9l8.3,100.6l8.3-101.6l9.2,111.4l6.6-91.9l7.4,103.1l5.9-87.2l6,89.6l4.1-76.6l5.2,96.1L758.3,985.1L758.3,985.1z
			 M1347.2,984.9h-6.8l3.4-81.6L1347.2,984.9z"/>
	</g>
	<g transform="matrix(1,0,0,-1,0,1856.45)" class="st14">
		<path class="st13" d="M1518.3,985l4.1-77.8l4.1,76.6l6-89.6l5.9,87.2l7.4-103.1l6.6,91.9l9.2-111.4l8.3,101.6l8.3-100.6l6.7,80.8
			l4-70.6l2.3,40.7l5-86.8l8.2,143.2l10-175.5l7.1,125.7l5.3-93l4.5,78.7l4.2-101.7l0.8,20.8l1.9-32.1l3,53.5l3-56.6l2.9,54.1
			l1.4-25l1.3,23.9l4.4-65.9l5.9,87.2l0.5-6.2l5-87.9l0.6,9.9l1.4-19l6.6,91.9l0.8-8.7l2.2-38.3l0.4,6.9l5.9-71.4l8.3,101.6
			l8.3-100.6l6.7,80.8l4-70.6l2.3,40.7l5-86.8l5.4,95.3l1-17.5l2.7,47.9l9-157.9l7.1,125.7l5.3-93l4.7,83l6.7-117.3l5.9,104l4.5-78
			l3.1,55.2l0.7-12.2l4,70.7l9.3-162.5l6.8,118.1l4.7-82.3l2.3,40.3l5-87.1l8.2,142.7l2.4-43.1l1.5,26.9l5.5-96.9l6.8,118.9
			l5.2-90.5l4.2,74.7l6.1-107.4l7,123l4.6-80.9l4.5,78.2l8.3-145.8l11.4,201l4.3-75.8l0.8,13.5L1896,619l6.9,121l0.1-1l6.3,110.8
			l9.6-167.9l8,140l11.7-206l12.2,214l10.1-177.7l7.4,129.6l11.3-198.2l6.6,116l2.7-47.9l9.3,163.3l9.2-161v334.5v-3.8h-65.3h-5.8
			h-418.1V985z M1516.3,985h-5.3l2.6-63.3L1516.3,985z"/>
	</g>
	<path class="st15" d="M1034.5,920.4l685.6-0.7l-340.4,6.3L1034.5,920.4z"/>
	<path class="st11" d="M2007.8,883.9l-485.9,8l485.9,0.9"/>
	<g transform="matrix(0.48574,0,0,1,1135.25,37.4374)">
		<path class="st11" d="M1796.2,881.6l-485.9,8l485.9,0.9"/>
	</g>
	<g transform="matrix(0.917087,0,0,1,183.035,61.6427)">
		<path class="st11" d="M1989.7,880.1l-485.9,8l485.9,0.9"/>
	</g>
	<g transform="matrix(1.60482,0,0,1,-1335.16,82.9979)">
		<path class="st11" d="M2083.1,878.7l-485.9,8l485.9,0.9"/>
	</g>
	<path class="st11" d="M1219.9,891.9l-468.4,0.8c0.9-2.8,1.9-5.6,2.7-8.5L1219.9,891.9z"/>
	<g transform="matrix(-1.60482,0,0,1,4458.19,120.49)">
		<path class="st11" d="M2282.1,876.4l-485.9,8l485.9,0.9"/>
	</g>
	<g transform="matrix(-1.60482,0,0,-0.183287,4456.51,1219.16)">
		<path class="st15" d="M2282,1294.1l-485.9,8l485.9,0.9"/>
	</g>
	<g transform="matrix(1.60482,0,0,-0.834706,-1335.72,1753.09)">
		<path class="st15" d="M2083.1,1013.4l-485.9,8l485.9,0.9"/>
	</g>
	<g>
		<path class="st16" d="M1917.7,762.2c0,0-39.8,5-73.9-25.5c-57.7-4.5-79-36.8-77.7-71c1.3-34.2,300.2-75.6,300.2-75.6
			s12.5,59.2-20.5,98.2C2011.1,756.6,1958.3,762.2,1917.7,762.2z"/>
		<path class="st17" d="M1933.3,692c-5.9,2-11.9,3.8-18,5.1c-7.9,1.8-19.7,4.5-30.4,6.9c-15.9,3.6-32.6-0.4-45.2-10.7
			c-2.2-1.8-4.3-3.6-6.4-5.3c-8.8-7.2-19.9-11-31.2-10.6c-2.3,0.1-4.6,0.2-7,0.2c-32.4,1-63.8-11.2-87-33.9
			c-0.1-0.1-0.2-0.2-0.4-0.3c-18.5-18-25.8-44.6-19.3-69.5l0,0c3.8-14.4-4.2-29.4-18.4-34.1c-1.7-0.6-3.5-1.2-5.3-1.8
			c-17.3-5.9-27.5-23.7-23.8-41.6c2.3-11.6,5-24.4,7.1-34.8c2.8-13.5,1.1-27.5-4.7-40c-0.8-1.8-1.7-3.7-2.5-5.4
			c-3.8-8.1-1.4-17.5,5.5-23c3.2-2.4,6.8-5.3,10.2-8c12.2-9.6,15.9-26.5,8.7-40.1l0,0c-7.6-14.6-4.1-32.6,8.3-43.3
			c3.5-2.9,6.8-5.9,9.9-8.5c6.6-5.6,8.3-15.1,4-22.7c-0.8-1.3-1.5-2.7-2.3-4.1c-4.8-8.6-4.8-19,0.1-27.6c2.9-5.2,5.9-10.5,7.8-13.6
			c1.1-2,2.3-3.8,3.7-5.5c9.3-12.3,48.1-64,64.4-85.5c4.8-6.4,9.1-13,13-20c13.4-23.9,45.2-80.7,45.2-80.7s4.9,8.1,11.2,18.7
			c18.5,30.8,48,53.4,82.6,63.1l0,0c31.2,8.8,57.3,30.5,71.7,59.6c0.6,1.1,1.1,2.3,1.6,3.3c3.2,6.4,7.4,12,12.8,16.8
			c4.5,4,10.2,9.2,15.6,14c9.8,8.8,15.4,21.3,15.4,34.4l0,0c0,24.2,8.6,47.7,24.5,66c2.5,3,5.1,5.9,7.3,8.5
			c7.1,8.3,12.9,17.6,17.1,27.8c4.3,10.4,10.1,24.3,15,36c5.4,13,0.4,28-11.8,35l0,0c-5.3,3.1-9,8.3-10.1,14.4
			c-1.1,6,0.5,12.3,4.3,17.1c1.9,2.3,3.8,4.8,5.8,7.2c12.7,15.7,13.4,37.9,1.8,54.3l0,0c-6.6,9.3-6.1,21.9,1.1,30.6
			c1,1.2,2.1,2.5,3.1,3.8c8.9,10.8,8.8,26.5-0.1,37.1c-9.8,11.8-21.5,25.7-25.6,30.7c-1,1.2-2,2.5-2.9,3.8l0,0
			c-19.1,28.2-47,49.3-79.2,60.4C1962.5,682,1943.9,688.3,1933.3,692z"/>
		<path class="st18" d="M2082.4,416.4L2082.4,416.4c12.2-7,17.3-22,11.8-35c-4.9-11.7-10.7-25.6-15-36c-4.2-10-9.9-19.4-17.1-27.8
			c-2.3-2.6-4.8-5.5-7.3-8.5c-15.8-18.4-24.4-41.8-24.4-66l0,0c0-13.1-5.6-25.7-15.4-34.4c-3.1-2.8-6.4-5.7-9.5-8.5
			c-8.3,9.3-9.7,23.2-2.7,34l0,0c3.4,5.2,4.2,11.5,2.5,17.4c-1.8,5.9-6,10.7-11.6,13.2c-2.7,1.2-5.6,2.5-8.4,3.8
			c-18.4,8.2-29.2,27.6-26.4,47.6l0,0c1.6,11.3-4.6,22.1-15,26.7c-1.5,0.7-3,1.3-4.5,2c-12.9,5.5-19.9,19.5-16.9,33.1
			c3.4,15,7.4,32.6,8.8,38.9c0.4,1.6,0.7,3.2,0.8,4.8c4.2,33.9,19.2,65.4,43,89.9c13.3,13.7,26.9,27.9,34.7,35.9
			c4.3,4.5,8.9,8.7,13.7,12.8c6.2,5.2,15.5,12.9,23.9,20c8.9,7.4,19.9,11.6,31.2,12.2c3.1-3.8,6.4-7.7,9.5-11.3
			c9-10.8,9-26.4,0.1-37.1c-1-1.2-2.1-2.5-3.1-3.8c-7.2-8.8-7.7-21.3-1.1-30.6l0,0c11.6-16.5,10.9-38.6-1.8-54.3
			c-2-2.4-3.9-4.9-5.8-7.2c-3.8-4.8-5.4-11-4.3-17.1C2073.4,424.7,2077.1,419.5,2082.4,416.4z"/>
		<path class="st19" d="M1888.9,643.4c0.2-1.6,0.5-3.2,0.8-4.8c1.4-6.3,5.4-24,8.8-38.9c3.1-13.7-4-27.6-16.9-33.1
			c-1.5-0.7-3-1.3-4.5-2c-10.4-4.5-16.5-15.5-15-26.7l0,0c2.8-20-8-39.4-26.4-47.6c-2.8-1.3-5.7-2.5-8.4-3.8
			c-5.6-2.5-9.8-7.3-11.6-13.2c-1.8-5.9-0.8-12.3,2.5-17.4l0,0c7.6-11.8,5.3-27.5-5.4-36.6c-9.7-8.2-21.2-17.9-29.8-25.2
			c-8.3-7-17.7-12.8-27.9-16.9c-3.2-1.3-6.8-2.7-10.4-4.2c-22.4-9.2-40.8-26.1-51.9-47.7l0,0c-4.8-9.4-12.7-16.8-22.1-21.1
			c-10.2,10.9-12.6,27.2-5.5,40.6l0,0c7.1,13.7,3.5,30.7-8.7,40.1c-3.6,2.7-7,5.5-10.2,8c-7,5.4-9.3,15-5.5,23
			c0.8,1.8,1.7,3.6,2.5,5.4c5.8,12.5,7.5,26.5,4.7,40c-2.2,10.4-4.8,23.3-7.1,34.8c-3.7,17.9,6.5,35.7,23.8,41.6
			c1.8,0.6,3.5,1.2,5.3,1.8c14.2,4.8,22.1,19.7,18.4,34.1l0,0c-6.6,25,0.8,51.5,19.3,69.5c0.1,0.1,0.2,0.2,0.4,0.3
			c23.2,22.7,54.6,34.9,87,33.9c2.4-0.1,4.9-0.2,7-0.2c11.3-0.4,22.5,3.4,31.2,10.6c2.1,1.7,4.2,3.5,6.4,5.3
			c8.1,6.7,17.9,10.6,28,11.7C1879,686.2,1886.3,665.3,1888.9,643.4z"/>
	</g>
	<g transform="matrix(-1,0,0,1,3080.04,-0.207593)">
		<path class="st16" d="M2234.5,762.2c0,0-39.8,5-73.9-25.5c-57.6-4.5-79-36.8-77.7-71c1.3-34.2,300.2-75.6,300.2-75.6
			s12.5,59.2-20.5,98.2C2328,756.6,2275.1,762.2,2234.5,762.2z"/>
		<path class="st18" d="M2250.1,692c-5.9,2-11.9,3.8-18,5.1c-7.9,1.8-19.7,4.5-30.4,6.9c-15.9,3.6-32.6-0.4-45.2-10.7
			c-2.2-1.8-4.3-3.6-6.4-5.3c-8.8-7.2-19.9-11-31.2-10.6c-2.3,0.1-4.6,0.2-7,0.2c-32.4,1-63.8-11.2-87-33.9
			c-0.1-0.1-0.2-0.2-0.4-0.3c-18.5-18-25.8-44.6-19.3-69.5l0,0c3.8-14.4-4.2-29.4-18.4-34.1c-1.7-0.6-3.5-1.2-5.3-1.8
			c-17.3-5.9-27.5-23.7-23.8-41.6c2.3-11.6,5-24.4,7.1-34.8c2.8-13.5,1.1-27.5-4.7-40c-0.8-1.8-1.7-3.7-2.5-5.4
			c-3.8-8.1-1.4-17.5,5.5-23c3.2-2.4,6.8-5.3,10.2-8c12.2-9.6,15.9-26.5,8.7-40.1l0,0c-7.6-14.6-4.1-32.6,8.3-43.3
			c3.5-2.9,6.8-5.9,9.9-8.5c6.6-5.6,8.3-15.1,4-22.7c-0.8-1.3-1.5-2.7-2.3-4.1c-4.8-8.6-4.8-19,0.1-27.6c2.9-5.2,5.9-10.5,7.8-13.6
			c1.1-2,2.3-3.8,3.7-5.5c9.3-12.3,48.1-64,64.4-85.5c4.8-6.4,9.1-13,13-20c13.4-23.9,45.2-80.7,45.2-80.7s4.9,8.1,11.2,18.7
			c18.5,30.8,48,53.4,82.6,63.1l0,0c31.2,8.8,57.3,30.5,71.7,59.6c0.6,1.1,1.1,2.3,1.6,3.3c3.2,6.4,7.4,12,12.8,16.8
			c4.5,4,10.2,9.2,15.6,14c9.8,8.8,15.4,21.3,15.4,34.4l0,0c0,24.2,8.6,47.7,24.5,66c2.5,3,5.1,5.9,7.3,8.5
			c7.1,8.3,12.9,17.6,17.1,27.8c4.3,10.4,10.1,24.3,15,36c5.4,13,0.4,28-11.8,35l0,0c-5.3,3.1-9,8.3-10.1,14.4
			c-1.1,6,0.5,12.3,4.3,17.1c1.9,2.3,3.8,4.8,5.8,7.2c12.7,15.7,13.4,37.9,1.8,54.3l0,0c-6.6,9.3-6.1,21.9,1.1,30.6
			c1,1.2,2.1,2.5,3.1,3.8c8.9,10.8,8.8,26.5-0.1,37.1c-9.8,11.8-21.5,25.7-25.6,30.7c-1,1.2-2,2.5-2.9,3.8l0,0
			c-19.1,28.2-47,49.3-79.2,60.4C2279.4,682,2260.7,688.3,2250.1,692z"/>
		<path class="st20" d="M2256.4,344.6c1.5-0.7,3-1.3,4.5-2c10.4-4.5,16.5-15.5,15-26.7l0,0c-2.8-20,8-39.4,26.4-47.6
			c2.8-1.3,5.7-2.5,8.4-3.8c5.6-2.5,9.8-7.3,11.6-13.2c1.8-5.9,0.8-12.3-2.5-17.4l0,0c-6.9-10.8-5.6-24.7,2.7-34
			c3.1,2.8,6.4,5.7,9.5,8.5c9.8,8.8,15.4,21.3,15.4,34.4l0,0c0,24.2,8.6,47.7,24.5,66c2.5,3,5.1,5.9,7.3,8.5
			c7.1,8.3,12.9,17.6,17.1,27.8c4.3,10.4,10.1,24.3,15,36c5.4,13,0.4,28-11.8,35l0,0c-5.3,3.1-9,8.3-10.1,14.4
			c-1.1,6,0.5,12.3,4.3,17.1c1.9,2.3,3.8,4.8,5.8,7.2c12.7,15.7,13.4,37.9,1.8,54.3l0,0c-6.6,9.3-6.1,21.9,1.1,30.6
			c1,1.2,2.1,2.5,3.1,3.8c8.9,10.8,8.8,26.5-0.1,37.1c-3.1,3.7-6.3,7.6-9.5,11.3c-11.3-0.6-22.3-4.8-31.2-12.2
			c-8.4-7-17.7-14.8-23.9-20c-4.8-4-9.4-8.3-13.7-12.8c-7.8-8.1-21.5-22.1-34.7-35.9c-23.7-24.5-38.7-56-43-89.9
			c-0.2-1.6-0.5-3.2-0.8-4.8c-1.4-6.3-5.4-24-8.8-38.9C2236.5,364.1,2243.5,350.3,2256.4,344.6z"/>
		<path class="st21" d="M1986.8,539.7c-1.7-0.6-3.5-1.2-5.3-1.8c-17.3-5.9-27.5-23.7-23.8-41.6c2.3-11.6,5.1-24.4,7.1-34.8
			c2.8-13.5,1.1-27.5-4.7-40c-0.8-1.8-1.7-3.7-2.5-5.4c-3.8-8.1-1.5-17.5,5.5-23c3.2-2.4,6.8-5.3,10.2-8
			c12.2-9.6,15.9-26.5,8.7-40.1l0,0c-7-13.5-4.6-29.7,5.5-40.6c9.5,4.3,17.3,11.7,22.1,21.1l0,0c11.1,21.6,29.5,38.5,51.9,47.7
			c3.7,1.5,7.1,2.9,10.4,4.2c10.1,4.1,19.5,9.8,27.9,16.9c8.6,7.3,20.2,17.1,29.8,25.2c10.7,9.1,13,24.8,5.4,36.6l0,0
			c-3.4,5.2-4.2,11.5-2.5,17.4c1.8,5.9,6,10.7,11.6,13.2c2.7,1.2,5.6,2.5,8.4,3.8c18.4,8.2,29.2,27.6,26.4,47.6l0,0
			c-1.6,11.3,4.6,22.1,15,26.7c1.5,0.7,3,1.3,4.5,2c12.9,5.5,19.9,19.5,16.9,33.1c-3.4,15-7.4,32.6-8.8,38.9
			c-0.4,1.6-0.7,3.2-0.8,4.8c-2.7,21.9-10,42.9-21.2,61.5c-10.1-1-20-5.1-28-11.7c-2.2-1.8-4.3-3.6-6.4-5.3
			c-8.8-7.2-19.9-11-31.2-10.6c-2.3,0.1-4.6,0.2-7,0.2c-32.4,1-63.8-11.2-87-33.9c-0.1-0.1-0.2-0.2-0.4-0.3
			c-18.5-18-25.8-44.6-19.3-69.5l0,0C2008.9,559.4,2001,544.5,1986.8,539.7z"/>
	</g>
	<g>
		<path class="st22" d="M1175,784.1l182.3,113.8c0,0,41.5,35.4,81.8,14.1c40.3-21.3,188.4-150.7,188.4-150.7s-132,62.8-229.1,79.4
			C1314.7,827.8,1230.2,805.4,1175,784.1z"/>
		<path class="st22" d="M1375,842.1c0,0-34.3-22.9-38.7-26.5c11-1.7,28.5-0.9,28.5-0.9s17.7-6.8,5.3-9.8
			c-12.4-2.9-58.4-9.3-58.4-9.3s-9.5-1.7-8.6,5c0.8,6.8,21.6,35,21.6,35l72.9,30.2l67-36.6l10.5-16.8c0,0,9.6-14.6-5.6-12.7
			s-64,3.4-64,3.4s-6.8,8.6,0,10.9c6.8,2.3,36,1.9,36,1.9L1396,842"/>
		<path class="st22" d="M1432.8,824.1c0,0-24.4,8.3-27.8,8.3c-3.4,0-3.8-1.1-3.8-1.1s1.2-5.3,3.8-7.7c2.4-2.4,7.2-26.8-3.8-33.4
			c-10.9-6.6-29.2-0.8-32.8,14.6c-3.7,15.4,2.4,14.4,6.1,23.4c3.7,9-10.2,0.9-16.5,3.7c-6.4,2.7,5.6,12,10.5,12.9
			c4.9,0.8,17.7,6.5,22,10.8c4.3,4.4,10.9,53.4,10.9,53.4s-2.7,24.9,0,28.2c2.7,3.4,12.8-3.5,14.6-8.4c1.8-5-5.3-3-5.3-3l2.5-9.9
			l64.6-44.4c0,0-2.3,43.1-2.3,47.7s3.9,5.3,17.8,4.6c0,0,6.8,0.4,11.8,0.7c0.8,0,1.5-0.4,1.8-1.1c0.3-0.8,0.1-1.5-0.5-2.1
			c-4.2-3.7-11.4-9.3-18.8-12.3c3.4-38.7,3.7-42.4,3.7-42.4"/>
	</g>
	<g>
		<path class="st23" d="M1751.2,415.8l40.1,50.3l0.4-0.5l112.9,21.9l2.6,1l1.9,1.9l1,2.5v2.8l10,2l-1,3.3c-1.6,3-3.6,5.8-6.3,7.7
			c-2.8,1.9-6.1,2.9-9.5,3c-1.4,0-3.5-0.3-3.5-0.3L1786,479.3l-1-0.6c-1.2-0.8-2.2-2-2.8-3.3l-32.7-58.3l-2.6-5.9l-0.3-0.5
			C1748,412.4,1749.6,414.1,1751.2,415.8z"/>
		<path class="st23" d="M1891.1,233.5l4.5,4.5l51.1,64.4l0.8,0.8l0.6,1l0.4,1.1c0.2,1.2,0.2,1.2,0.2,2.4l-28.7,151.3l-1.2,3.3
			c-1.8,2.9-3.9,5.6-6.8,7.3c-2.9,1.7-6.3,2.5-9.7,2.3c-1.4-0.1-3.5-0.6-3.5-0.6l2.6-10.1l-2.4-1.2l-1.8-2l-0.8-2.4l0.2-2.7
			l37.7-145.8l0.6-0.1l-41.1-68l-3-6.3C1890.8,233.1,1890.9,233.3,1891.1,233.5z"/>
		<path class="st23" d="M1739.8,229.1l47.1,99.6l0.6-0.7l74.5,14.6l3.9,1.7l2.9,2.9l1.6,3.8v4.3l6.4,1.3l-1,3.3
			c-1.6,3-3.6,5.8-6.4,7.6c-2.8,1.9-6.1,2.9-9.5,2.9c-1.4,0-3.5-0.4-3.5-0.4l-79-21.9l-1.7-0.8c-2.5-1.6-4.3-3.8-5.3-6.8
			l-32.7-110.9l-2.4-9.6l-0.5-1.3C1736.4,222.3,1738.1,225.7,1739.8,229.1z"/>
		<path class="st23" d="M1990.9,387.4l36.5,86.1l3.1-1.3l-4.2,14.2l0.4,0.7l-90.9,58.3c-2.1,0.9-4.1,2.1-6.5,2.2
			c-2.3,0.1-4.5,0.1-6.7-0.5c-3.3-0.8-6.2-2.7-8.4-5.2c-0.9-1-2.1-2.8-2.1-2.8l4.3-2.5l-1.5-4.6l0.3-4.7l2.1-4.2l3.7-3.2l85-48.2
			l0.8,0.3l-26.3-70.2l-19.9,23.7l-1.7-0.5l5.3,32.5l-0.2,0.3l19.9-3.4l2.1-0.1l1,0.5l-0.8,0.2l-0.5,0.8l-1.3,0.7l-21.6,5.7
			l-2.7-1.6l-0.3,0.1l-7.4-35.8l0.6-3.4l-0.2-0.2l26.8-35C1983.3,386.7,1987,387,1990.9,387.4z"/>
		<path class="st23" d="M1834.6,545.5l11.6,37.2l0.9-0.9l81,10.2l2.9,1l2.3,2l1.3,2.7l0.2,3.1l9.4,1.3l-0.8,3.4
			c-1.5,3.1-3.3,6-5.9,8c-2.7,2.1-6,3.3-9.3,3.5c-1.4,0.1-3.5-0.2-3.5-0.2l-84-21.6l-4.2-6.7l-3.9-42.7v-5.4l-0.2-1.2
			C1833,541.3,1833.8,543.4,1834.6,545.5z"/>
		<path class="st23" d="M1846.1,135.3l3.6,2.2l27.7,24.1l1.8,3.4l0.8,0.1l-3.1,128c-0.5,2.3-0.8,4.6-2.2,6.5
			c-1.3,1.8-2.6,3.7-4.3,5.1c-2.6,2.1-5.9,3.4-9.2,3.7c-1.4,0.1-3.5-0.1-3.5-0.1l1.3-11.7l-2.1-0.7l-1.6-1.4l-0.9-1.9l-0.2-2.2
			l15.3-124.4l0.7-0.3l-22.1-26.8C1848.1,138.9,1844.9,133.9,1846.1,135.3z"/>
		<path class="st23" d="M1775.9,537.1l18.9,69l0.4-0.3l135.5,87.3l1.9,1.8l1,2.3l0.1,2.5l-0.9,2.4l8.9,5.8l-2.2,2.7
			c-2.6,2.2-5.4,4-8.7,4.8c-3.3,0.8-6.8,0.5-9.9-0.8c-1.3-0.5-3.1-1.6-3.1-1.6l-131.6-98l-2-4.4l-10.3-73.3l-0.1-5.8l-0.1-0.5
			C1774.4,533.3,1775.1,535.1,1775.9,537.1z"/>
		<path class="st23" d="M2021.3,554.1l-67.9,85.2c-0.9,0.7-1.8,1.5-2.7,2.1c-2.9,1.8-6.3,2.6-9.6,2.4c-2.3-0.1-4.4-0.8-6.5-1.5
			c-2.3-0.8-3.8-2.4-5.5-3.9l0,0c-1.4-1.8-3-3.6-3.6-5.8c-0.6-2.2-1.1-4.3-1-6.6c0.1-3.4,1.2-6.7,3.2-9.4c0.8-1.1,2.3-2.6,2.3-2.6
			l90-61.5C2020.2,553,2020.7,553.6,2021.3,554.1z"/>
		<path class="st23" d="M1740.3,599.7l10.8,30.2l0.3-0.6l52.6-11.2l2.7,0.6l1.6,2.3l3.8-0.8v3c-1.1,2.6-1.1,2.6-3.1,4.7l-2.7,1.1
			l-56.3,7.4l-3.3-2.8l-7.2-33.8l-0.3-2.7l-0.3-0.9C1739.3,597.4,1739.8,598.5,1740.3,599.7z"/>
		<path class="st23" d="M1881.9,593.3v3c-1,2.6-1.1,2.7-3.1,4.8l-2.7,1.2h-3c-2.6-1-2.7-1.1-4.8-3.1l-1.2-2.7l-2.9-46.5l0.9-0.2
			C1870.8,564.3,1876.3,578.8,1881.9,593.3z"/>
		<path class="st23" d="M1821.3,407.4l2.8,42.3l0.2-0.1l43,36.8l1.3,2.5l-0.9,2.7l2.8,2.4l-2.3,1.8c-2.7,0.8-2.8,0.8-5.6,0.4
			l-2.6-1.5l-41.5-40.9l-0.8-2.8l2.8-43.8l0.5-3.6C1821,405,1821.1,406.3,1821.3,407.4z"/>
		<path class="st23" d="M1838.2,483.4l3.6-1.6l0.7,2.9c-0.5,2.8-0.5,2.8-2.1,5.3l-2.4,1.7l-48.3,17.3l-2.4-0.3l-32.9-13.6l-3-1.5
			l3.4,0.6l33.4,8.2V502l45.4-20.5l2.7-0.1C1836.9,482.1,1837.5,482.8,1838.2,483.4z"/>
		<path class="st23" d="M1816.4,342.2l2.6,1.2l2,2.3l0.9,2.8c-0.2,2.8-0.2,2.9-1.5,5.4l-2.3,2l-43.1,16.8l-0.5-0.8l36.1-29l2.8-0.9
			C1814.5,342.1,1815.5,342.1,1816.4,342.2z"/>
		<path class="st23" d="M1773.1,309.4l2.8,0.8l2.3,1.9l1.4,2.5l0.3,3l-0.8,2.8c-1.9,2.2-1.9,2.3-4.4,3.6l-3,0.3l-38-10.9l0.1-0.9
			C1746.8,311.4,1759.9,308,1773.1,309.4z"/>
		<path class="st23" d="M1790,255.6l-15.2,45.1l-1.9,2.3l-2.5,1.4l-2.8,0.4l-2.9-0.8l-2.3-1.9c-1.4-2.5-1.4-2.5-1.7-5.3l0.8-2.9
			l27.7-38.7C1789.5,255.3,1789.8,255.5,1790,255.6z"/>
		<path class="st23" d="M1896.7,200.6l-21.1,38.4l-2.3,1.9l-2.7,0.8l-2.9-0.2l-2.6-1.3l-2-2.3c-0.8-2.7-0.8-2.7-0.7-5.6l1.3-2.6
			l32.2-29.6C1896.2,200.3,1896.4,200.5,1896.7,200.6z"/>
		<path class="st23" d="M1883.4,280l-11.9,39.2l-1.9,2.3l-2.5,1.4l-2.9,0.4c-1.1-0.3-2.9-0.8-2.9-0.8l-2.3-1.9
			c-1.4-2.5-1.4-2.5-1.8-5.3l0.8-2.9l24.5-32.9C1882.8,279.7,1883.1,279.8,1883.4,280z"/>
		<path class="st23" d="M1977,308.9l-35.6,37.3l-2.6,1.3l-2.9,0.2l-2.7-0.8l-2.3-1.9l-1.3-2.6c-0.2-2.8-0.2-2.9,0.7-5.6l1.9-2.3
			l44.4-26.3C1976.6,308.4,1976.8,308.6,1977,308.9z"/>
		<path class="st23" d="M1926.6,399.1l0.6,2.9c-0.6,2.8-0.6,2.8-2.3,5.3l-2.5,1.7l-2.9,0.6c-2.8-0.6-2.8-0.6-5.3-2.3l-1.7-2.4
			l-16.9-60.4l0.8-0.4C1906.7,362.4,1916.7,380.7,1926.6,399.1z"/>
		<path class="st23" d="M1972.5,511.9l0.5,2.9c-0.7,2.8-0.7,2.8-2.3,5.2l-2.5,1.6l-2.9,0.5c-2.8-0.7-2.8-0.7-5.2-2.3l-1.6-2.5
			l-9-42.5l0.9-0.4C1957.8,486.9,1965.1,499.4,1972.5,511.9z"/>
		<path class="st23" d="M1996,492.6l24.8,22.4l-0.5,0.8l-31.8-10.2l-2.3-2c-1.2-2.5-1.2-2.6-1.5-5.4l0.9-2.8l2-2.3
			c2.5-1.2,2.6-1.2,5.4-1.5C1994.2,492,1995.1,492.3,1996,492.6z"/>
		<path class="st23" d="M1978.9,591l-0.6,2.9c-1.6,2.3-1.6,2.4-4,4l-2.9,0.6l-2.9-0.6c-2.3-1.6-2.4-1.6-4-4l-0.6-2.9l7-37.5h0.9
			C1974.2,566.1,1976.5,578.6,1978.9,591z"/>
		<path class="st23" d="M1943,249.1l1.1,78.5l-0.8,2.8l-1.8,2.3l-2.5,1.4l-3,0.4l-2.8-0.8c-2.3-1.8-2.3-1.8-3.7-4.3l-0.4-2.9
			l12.9-77.4C1942.5,249,1942.8,249,1943,249.1z"/>
	</g>
	<g>
		<g transform="matrix(1,0,0,1,-157.503,0)">
			<path class="st23" d="M1157.6,323.4l1.1,6.6l5.4,71l0.2,1.1v1.2c-0.3,1.2-0.3,1.2-0.8,2.3c0,0-1.7,2.5-3.9,3.8l-100.6,32.6
				l-3.5,0.5c-3.4-0.3-6.8-0.8-9.6-2.5c-2.9-1.8-5.2-4.4-6.6-7.4c-0.6-1.3-1.1-3.3-1.1-3.3l9.4-2.3l-0.1-3l1-2.7l2-2.2l2.7-1.3
				l96.7-23l1,0.8l5.4-65.8l1.1-8.3C1157.6,322.2,1157.6,322.8,1157.6,323.4z"/>
		</g>
		<g transform="matrix(1,0,0,1,-157.503,0)">
			<path class="st23" d="M1057.4,390.5l0.8,5.4c-1.2,5.2-1.3,5.3-4.4,9.6l-4.7,2.9l-5.4,0.8c-5.2-1.2-5.3-1.3-9.6-4.4l-2.9-4.7
				l-28.8-114.6l1.7-0.7C1021.8,320.1,1039.6,355.3,1057.4,390.5z"/>
		</g>
		<g transform="matrix(1,0,0,1,-157.503,0)">
			<path class="st23" d="M1136.5,512.3l0.6-0.9l1.8,5.3l0.5,0.3l-33.6,68.9l-4.7,4.2l0.1,0.3l-93.8,34.1l-5.4,0.6l-5.2-1.6l-4.1-3.4
				l-2.6-4.9l5-1.5l-0.4-3.5c0.9-3.2,1-3.2,3.1-5.8l3-1.7l92.2-28l2.5,3l34.1-61.8l0.5-0.1l-22.9-14.4l-7.7,22.1l-1.4,1.7l-0.3-2.3
				l6.5-26l3.3-1.7C1117.3,501.3,1127,506.8,1136.5,512.3z"/>
		</g>
		<g transform="matrix(1,0,0,1,-157.503,0)">
			<path class="st23" d="M945.9,361.6l21.5,72l54.5,95.6l0.8,2.3l-0.2,2.4l-1,2.2l-1.9,1.7l3.8,6.7l-5.3,1.7
				c-5.3-0.4-5.3-0.5-10.1-2.8l-3.7-4.1L956,439l-0.4-1.8L944.2,362l-0.5-6.2C944.3,357.8,945.1,359.7,945.9,361.6z"/>
		</g>
		<g transform="matrix(1,0,0,1,-157.503,0)">
			<path class="st23" d="M1182.1,196.8l0.9,4.4l3.6,47.7l-2.9,5l0.3,0.8l-89.1,36.3l-5.4,0.6l-5.2-1.5l-4.2-3.3l-2.6-4.9l7.5-2.3
				l-0.3-2.4c0.7-2.3,0.7-2.3,2.1-4l2.1-1.1l88.1-26.8l0.8,0.6l3.6-44.4l0.8-5.5C1182.1,196.1,1182.1,196.4,1182.1,196.8z"/>
		</g>
		<g transform="matrix(1,0,0,1,-157.503,0)">
			<path class="st23" d="M1055.8,156.3l-26.5,51.1h0.6l44.8,104.4l0.5,2.3l-0.5,2.2l-1.2,1.9l-1.9,1.3l3.2,7.5l-5.4,1.1
				c-5.3-1-5.3-1-9.8-3.9l-3.1-4.6l-38-110.3l1.2-4.8l34.6-49.1l3.3-3.7l0.3-0.5C1057.2,152.9,1056.5,154.6,1055.8,156.3z"/>
		</g>
		<g transform="matrix(1,0,0,1,-157.503,0)">
			<path class="st23" d="M882.8,454.7l21.2,92l0.4-0.2l102.4,58.6l2.1,1.9l1.2,2.4l0.2,2.7l-0.8,2.6l5.9,3.5l-3.7,4.1
				c-4.8,2.3-4.9,2.3-10.1,2.7l-5.3-1.8l-101.6-66.6l-2.7-5.1L881,455l-0.2-6.4l-0.1-0.7C881.5,450.2,882.2,452.5,882.8,454.7z"/>
		</g>
		<g transform="matrix(1,0,0,1,-157.503,0)">
			<path class="st23" d="M1070,751.5l-41.8,94l-3.8,4l-4.9,2.3l-5.3,0.3l-5.2-1.9l-4-3.8c-2.3-4.8-2.3-4.9-2.5-10.2l1.9-5.2
				l64.2-80.5C1069,750.9,1069.5,751.2,1070,751.5z"/>
		</g>
		<g transform="matrix(1,0,0,1,-157.503,0)">
			<path class="st23" d="M1184.4,262.8l-1.5,3.6l-17.4,28.7l-1,1.2l0.1,0.2l-88.5,62.3l-5.3,1.8l-5.3-0.4l-4.8-2.3l-3.7-4.1l8.3-4.9
				l-0.4-3.2l2-2.5l92.7-53.2l0.2,0.2l21.5-24.7C1181.5,265.4,1184.7,262.5,1184.4,262.8z"/>
		</g>
		<g transform="matrix(1,0,0,1,-157.503,0)">
			<path class="st23" d="M972.1,241.1l-24.3,62.6h0.5l80.1,129.7l0.8,2l-0.1,2.1l-0.8,1.9l-1.6,1.4l4.5,7.3l-5.2,1.9
				c-5.3-0.2-5.3-0.3-10.2-2.4l-3.8-4l-73.8-136.7l0.4-4.7l32-61.7l2.7-3.8l0.3-0.6C973,237.8,972.5,239.5,972.1,241.1z"/>
		</g>
		<g transform="matrix(1,0,0,1,-157.503,0)">
			<path class="st23" d="M1112.1,416.2l9.2,11.2l42.9-7.3l3.2-0.5l-0.5,0.1l-2.6,0.8l-43.4,12.9l-3-0.8l-11.1-11.9l-0.8-2.8l1.4-2.6
				l0.6,0.7l2.3-0.7C1110.7,415.5,1111.4,415.8,1112.1,416.2z"/>
		</g>
		<g transform="matrix(1,0,0,1,-157.503,0)">
			<path class="st23" d="M1166.7,224.7l-15.4,10.4l-12.9,30.1l-0.9,0.8h-1.2l-0.8,2.1l-2.1-2.2v-3l15.1-29.7l0.8-0.7l17.1-8.4
				l1.5-0.6C1167.5,224.1,1167,224.4,1166.7,224.7z"/>
		</g>
		<g transform="matrix(1,0,0,1,-157.503,0)">
			<path class="st23" d="M1008.3,202.8l1.8,34l33.4,10.8l1.2,1l0.1,1.7l1.6,0.6l-2,2.3l-3,0.2l-34-12.9l-1.2-2.1l1.7-35.6l0.3-2.3
				C1008.1,201.3,1008.2,202,1008.3,202.8z"/>
		</g>
		<g transform="matrix(1,0,0,1,-157.503,0)">
			<path class="st23" d="M977.9,312.6l-2.9,41.6l-1.6,2.5l-2.9,0.7l-2.5-1.6l-0.8-2.9l10.1-40.4
				C977.6,312.6,977.8,312.6,977.9,312.6z"/>
		</g>
		<g transform="matrix(1,0,0,1,-157.503,0)">
			<path class="st23" d="M1004.6,397.7l2,2.3l-0.2,2.9l-2.3,2l-26.3,5l-0.2-0.5l24-11.8C1002.6,397.5,1003.6,397.6,1004.6,397.7z"/>
		</g>
		<g transform="matrix(1,0,0,1,-157.503,0)">
			<path class="st23" d="M979.1,471.1l2.2,2.1l0.1,3l-2.1,2.2l-3,0.1l-33.8-16.7l0.2-0.5C954.9,464.5,967,467.8,979.1,471.1z"/>
		</g>
		<g transform="matrix(1,0,0,1,-157.503,0)">
			<path class="st23" d="M1036.6,316.1l-7.6,31.1l-2.1,2.2l-3,0.1l-2.2-2l-0.1-3l14.4-28.6C1036.4,315.9,1036.5,316,1036.6,316.1z"
				/>
		</g>
		<g transform="matrix(1,0,0,1,-157.503,0)">
			<path class="st23" d="M1103.8,385.3l-7,35.6l-1.9,2.3l-3,0.3l-2.3-1.9l-0.3-2.9l14-33.5C1103.5,385.2,1103.6,385.3,1103.8,385.3z
				"/>
		</g>
		<g transform="matrix(1,0,0,1,-157.503,0)">
			<path class="st23" d="M1061.8,566.8l-4.4,32.9l-1.8,2.3l-2.9,0.5l-2.3-1.8l-0.5-2.9l11.4-31.1
				C1061.4,566.7,1061.6,566.8,1061.8,566.8z"/>
		</g>
		<g transform="matrix(1,0,0,1,-157.503,0)">
			<path class="st23" d="M1102.2,587.6l-0.8,2.9l-2.5,1.5l-2.9-0.8l-1.5-2.5l-1.7-40l0.5-0.1
				C1096.3,561.5,1099.2,574.5,1102.2,587.6z"/>
		</g>
		<g transform="matrix(1,0,0,1,-157.503,0)">
			<path class="st23" d="M1149.5,551v0.5l-34.8,6l-2.8-0.9l-1.3-2.6l0.9-2.8l2.6-1.3C1125.9,549,1137.7,550.6,1149.5,551z"/>
		</g>
		<g transform="matrix(1,0,0,1,-157.503,0)">
			<path class="st23" d="M1070.1,595.8l18.7,23.1l-0.4,0.4l-23.7-17.8l-1.1-2.7l1.1-2.8l2.7-1.2
				C1068.4,595.1,1069.3,595.4,1070.1,595.8z"/>
		</g>
		<g transform="matrix(1,0,0,1,-157.503,0)">
			<path class="st23" d="M971.4,592.3l-0.5,2.9l-2.4,1.8l-2.9-0.5l-1.7-2.4l-4.8-36.1l0.5-0.1C963.4,569.4,967.3,580.8,971.4,592.3z
				"/>
		</g>
	</g>
	<g transform="matrix(1,0,0,1,-157.503,0)">
		<path class="st24" d="M1116.1,184.5c12.1,0,20.5,11.9,16.5,23.3c-36.6,104.5-119.4,361.4-112.1,524.2
			c9.3,208.2,171.6,329.8,171.6,329.8l-218-16.5c0,0-29.1-90.6,0-363.6c23-216.2,96.2-413.6,125.8-486.2
			C1102.5,188.8,1109,184.5,1116.1,184.5L1116.1,184.5z"/>
	</g>
	<path class="st24" d="M1816,158.5c7.2,0,13.6,4.4,16.3,11.1c29.8,75,106.8,295.8,129.8,512.1c29.1,273,0,363.6,0,363.6l-218,16.5
		c0,0,162.3-121.6,171.6-329.8c7.3-163-79.3-442.6-116.3-550.2C1795.6,170.4,1804,158.5,1816,158.5L1816,158.5z"/>
	<path class="st22" d="M1836.1,645.3l-246.9,143l-2.9,0.4l-2.3-1.9l-0.4-2.9l1.8-2.3l250.5-136.8l3.5-1.7
		C1838.3,643.9,1837.1,644.7,1836.1,645.3z"/>
	<g transform="matrix(-1,0,0,1,3124.54,22.1954)">
		<path class="st22" d="M2235.8,582.7l-330.9,197.6l-1.8,2.4l0.5,2.9l2.4,1.8l2.9-0.5l327.2-203.8l3.2-2.3
			C2238,581.5,2236.9,582.1,2235.8,582.7z"/>
	</g>
	<path class="st23" d="M1936.2,984.8c-45.5,12.1-53,13-70.6,14c-17.6,0.9-77.1,1.9-114.3,1.9c-37.1,0-40,8.3-54.8,13
		c-14.9,4.7-63.2,6.5-79.9,2.8c-16.7-3.8-29.7-0.9-51.1,2.8c-21.4,3.8-52,12.9-76.2,12.9c-24.2,0-76.2-6.5-98.8-10.2
		c-22.6-3.8-49-5.5-71.2-4.6c-22.3,0.9-65.9,12.1-85,12.9s-56.3-12-110.1-20.4c-53.9-8.3-22.3,0-89.5-4.6
		c-48.3-3.3-219.5-27.3-312.1-40.6c-25,51.8-57.5,100.6-97.7,144.7l-155,170h1468.5h55.3h14v-13.9v-25.4V970.9
		C1992,972.6,1969.6,976,1936.2,984.8z"/>
</g>
<g>
	<path d="M81.1,94.4c-0.2-0.5-0.4-1.1-0.6-1.6s-0.3-1.1-0.4-1.7c-1,1.2-2.3,2.1-3.7,2.8s-3.1,1.1-5,1.1c-3.1,0-5.6-0.8-7.4-2.5
		c-1.8-1.7-2.7-4-2.7-6.9c0-3,1.2-5.3,3.6-6.9s5.9-2.4,10.5-2.4h4.4v-3.1c0-1.5-0.4-2.7-1.3-3.5s-2.2-1.3-3.9-1.3
		c-1,0-1.8,0.1-2.6,0.3s-1.4,0.5-1.8,0.8l-0.6,3.4H63v-7c1.6-1.1,3.4-1.9,5.4-2.7s4.2-1.1,6.6-1.1c3.9,0,7.1,1,9.6,2.9
		c2.5,1.9,3.7,4.7,3.7,8.2v13.1c0,0.5,0,0.9,0,1.4s0,0.8,0.1,1.2l2.6,0.4v5.1H81.1z M73.6,88.7c1.3,0,2.5-0.3,3.5-0.8
		s1.9-1.3,2.5-2.1V81h-4.4c-1.8,0-3.2,0.4-4.1,1.3s-1.4,1.9-1.4,3.1c0,1.1,0.3,1.9,1,2.5S72.4,88.7,73.6,88.7z"/>
	<path d="M94.4,78.9c0-5,1.1-9,3.3-12.1c2.2-3.1,5.2-4.6,9.2-4.6c1.8,0,3.3,0.4,4.7,1.2c1.3,0.8,2.5,1.9,3.5,3.4l0.6-4h7.4v30.8
		c0,4.2-1.3,7.5-3.9,10s-6.2,3.7-10.8,3.7c-1.6,0-3.3-0.2-5.1-0.7s-3.5-1-5-1.8l1.6-6c1.4,0.6,2.7,1,4.1,1.4s2.8,0.5,4.3,0.5
		c2.1,0,3.7-0.6,4.7-1.9s1.6-3,1.6-5.3v-2.1c-0.9,1.2-2,2.1-3.3,2.7s-2.7,0.9-4.4,0.9c-3.9,0-6.9-1.4-9.1-4.3s-3.3-6.6-3.3-11.3
		L94.4,78.9L94.4,78.9z M102.9,79.5c0,2.8,0.5,5,1.4,6.5s2.5,2.4,4.6,2.4c1.3,0,2.4-0.2,3.3-0.7s1.6-1.2,2.2-2.1V71.8
		c-0.5-1-1.3-1.7-2.2-2.2s-2-0.8-3.3-0.8c-2.1,0-3.6,0.9-4.6,2.8s-1.5,4.3-1.5,7.3L102.9,79.5L102.9,79.5z"/>
	<path d="M127.8,89.3l4.1-0.9V68.8l-4.6-0.9v-5.2h13.1v25.7l4.1,0.9v5.1h-16.8L127.8,89.3L127.8,89.3z M140.5,55.2H132v-6.4h8.6v6.4
		H140.5z"/>
	<path d="M146.5,53.9v-5.2h13.1v39.7l4.1,0.9v5.1H147v-5.1l4.1-0.9V54.8L146.5,53.9z"/>
	<path d="M181.8,95.1c-4.6,0-8.2-1.5-11-4.4s-4.1-6.7-4.1-11.2v-1.2c0-4.7,1.3-8.6,3.9-11.6c2.6-3,6.1-4.6,10.4-4.5
		c4.3,0,7.6,1.3,10,3.9c2.4,2.6,3.5,6.1,3.5,10.5v4.7h-18.9l-0.1,0.2c0.2,2.1,0.9,3.8,2.1,5.2s2.9,2,5.1,2c1.9,0,3.5-0.2,4.7-0.6
		s2.6-1,4.1-1.8l2.3,5.3c-1.3,1-3,1.9-5.1,2.6S184.3,95.1,181.8,95.1z M181,68.7c-1.6,0-2.8,0.6-3.8,1.8s-1.5,2.8-1.7,4.8l0.1,0.1
		h10.5v-0.8c0-1.8-0.4-3.3-1.3-4.4S182.7,68.7,181,68.7z"/>
	<path d="M206.7,94.4h-5.8v-5.9h5.8V94.4z"/>
	<path d="M213.7,66.5v-3.7h9.9l0.6,4.6c0.9-1.6,2-2.9,3.3-3.8c1.3-0.9,2.8-1.4,4.5-1.4c0.4,0,0.9,0,1.4,0.1s0.8,0.1,1.1,0.2
		l-0.8,5.4l-3.3-0.2c-1.5,0-2.8,0.4-3.8,1.1s-1.8,1.7-2.4,3V90l4.8,0.8v3.7h-15.3v-3.7l4.8-0.8V67.3L213.7,66.5z"/>
	<path d="M252.5,95.1c-4.4,0-7.9-1.5-10.5-4.4s-3.9-6.8-3.9-11.4V78c0-4.5,1.3-8.3,4-11.3s5.9-4.5,9.5-4.5c4.3,0,7.5,1.3,9.7,3.9
		c2.2,2.6,3.3,6,3.3,10.3V80H244l-0.1,0.1c0.1,3,0.8,5.6,2.3,7.5s3.6,2.9,6.2,2.9c2,0,3.7-0.3,5.1-0.8s2.7-1.3,3.8-2.3l2.3,3.8
		c-1.1,1.1-2.6,2-4.5,2.8S255.1,95.1,252.5,95.1z M251.6,66.7c-1.9,0-3.6,0.8-5,2.4s-2.2,3.7-2.5,6.1l0.1,0.1h14.6v-0.8
		c0-2.3-0.6-4.2-1.8-5.7C255.8,67.5,254,66.7,251.6,66.7z"/>
	<path d="M269.6,102.9l4.8-0.8V67.3l-4.8-0.8v-3.7h9.7l0.5,3.9c1.1-1.4,2.3-2.5,3.9-3.3c1.5-0.8,3.3-1.1,5.3-1.1
		c3.9,0,7,1.6,9.2,4.7c2.2,3.1,3.3,7.2,3.3,12.3v0.6c0,4.6-1.1,8.3-3.3,11.1s-5.2,4.2-9.1,4.2c-2,0-3.7-0.3-5.1-1s-2.7-1.6-3.8-2.9
		v10.9l4.8,0.8v3.7h-15.3v-3.8H269.6z M295.5,79.2c0-3.6-0.7-6.6-2.1-8.9s-3.5-3.5-6.3-3.5c-1.6,0-3,0.4-4.2,1.1s-2.1,1.8-2.8,3
		v15.4c0.7,1.3,1.7,2.3,2.8,3s2.6,1.1,4.3,1.1c2.7,0,4.8-1,6.2-3s2.1-4.6,2.1-7.8V79.2z"/>
	<path d="M327.3,94.4c-0.2-0.9-0.3-1.6-0.4-2.3s-0.2-1.4-0.2-2.1c-1.1,1.4-2.5,2.6-4.2,3.6S319,95,317.2,95c-3.3,0-5.8-0.8-7.5-2.4
		s-2.6-3.9-2.6-6.8c0-3,1.2-5.3,3.6-7s5.8-2.4,10-2.4h5.9v-3.7c0-1.9-0.6-3.3-1.8-4.4s-2.8-1.6-4.9-1.6c-1.4,0-2.7,0.2-3.8,0.6
		s-2,0.9-2.7,1.5l-0.6,3.3h-4.5V66c1.4-1.2,3.2-2.1,5.2-2.8s4.3-1,6.7-1c3.6,0,6.5,0.9,8.7,2.8c2.2,1.8,3.3,4.5,3.3,7.9v15.3
		c0,0.4,0,0.8,0,1.2s0,0.8,0.1,1.2l2.3,0.3v3.7h-7.3V94.4z M318,90.2c1.9,0,3.7-0.5,5.2-1.4s2.7-2,3.4-3.3v-5.2h-6.2
		c-2.4,0-4.2,0.5-5.6,1.6s-2.1,2.4-2.1,4c0,1.4,0.4,2.4,1.3,3.2S316.2,90.2,318,90.2z"/>
	<path d="M339.6,90.8l4.8-0.8V67.3l-4.8-0.8v-3.7h10.5V90l4.8,0.8v3.7h-15.3V90.8z M350.2,54.6h-5.8v-5.9h5.8V54.6z"/>
	<path d="M359.3,66.5v-3.7h9.9l0.6,4.6c0.9-1.6,2-2.9,3.3-3.8c1.3-0.9,2.8-1.4,4.5-1.4c0.4,0,0.9,0,1.4,0.1s0.8,0.1,1.1,0.2
		l-0.8,5.4l-3.3-0.2c-1.5,0-2.8,0.4-3.8,1.1s-1.8,1.7-2.4,3V90l4.8,0.8v3.7h-15.3v-3.7l4.8-0.8V67.3L359.3,66.5z"/>
</g>
<g>
	<g>
		<path d="M128.4,777.2l10.6-56h16.1l-17.5,78.6h-16.3l-12.8-52.6l-12.8,52.6H79.5L62,721.3h16.1l10.7,55.9l12.9-55.9h13.9
			L128.4,777.2z"/>
		<path d="M211.2,765.9h-31.1v21h36.6v13.1H164v-78.6h52.6v13.2h-36.4v18.7h31.1L211.2,765.9L211.2,765.9z"/>
		<path d="M229.6,745.4l-7.4-4.3c3.1-4.9,4.7-9.9,4.8-15.1v-9.1h12.4v8.4c0,3.3-0.9,6.7-2.7,10.6
			C234.9,739.8,232.5,742.9,229.6,745.4z"/>
		<path d="M280.6,780.5l17.8-59.2h18.1l-27.4,78.6h-16.9l-27.2-78.6h17.9L280.6,780.5z"/>
		<path d="M371,765.9h-31.1v21h36.4v13.1h-52.7v-78.6h52.6v13.2h-36.4v18.7H371V765.9z"/>
		<path d="M413.5,799.9v-78.6h27.6c9.5,0,16.8,1.8,21.7,5.4c4.9,3.6,7.4,9,7.4,16c0,3.9-1,7.3-3,10.2s-4.8,5.1-8.3,6.5
			c4.1,1,7.2,3.1,9.5,6.1c2.3,3.1,3.5,6.8,3.5,11.2c0,7.6-2.4,13.3-7.3,17.1c-4.8,3.9-11.7,5.9-20.7,5.9H413.5z M429.7,754.3h12
			c8.2-0.1,12.3-3.4,12.3-9.8c0-3.5-1-6.1-3.1-7.7c-2-1.6-5.3-2.4-9.8-2.4h-11.4v19.9H429.7z M429.7,765.8V787h13.9
			c3.9,0,6.8-0.9,9-2.7c2.2-1.8,3.2-4.3,3.2-7.5c0-7.2-3.7-10.9-11.1-11H429.7z"/>
		<path d="M531.4,765.9h-31.1v21h36.6v13.1h-52.7v-78.6h52.6v13.2h-36.4v18.7h31.1L531.4,765.9L531.4,765.9z"/>
		<path d="M593.6,765.9h-31.1v21h36.4v13.1h-52.7v-78.6h52.6v13.2h-36.4v18.7h31.2V765.9z"/>
		<path d="M672.5,799.9h-16.2l-31.6-51.8v51.8h-16.2v-78.6h16.2l31.6,51.9v-51.9h16.1v78.6H672.5z"/>
	</g>
	<g>
		<path d="M114.6,865.4H83.5v21h36.4v13.1H67.2v-78.6h52.6v13.2H83.5v18.7h31.1V865.4z"/>
		<path d="M157.6,848l14.8-27.1H191L168,859.8l23.5,39.6h-18.8l-15.1-27.5l-15.1,27.6h-18.8l23.5-39.6l-22.9-38.9h18.6L157.6,848z"
			/>
		<path d="M215.8,871.8v27.7h-16.2v-78.6h30.7c5.9,0,11.1,1.1,15.6,3.3c4.4,2.2,7.9,5.2,10.3,9.2c2.4,4,3.6,8.5,3.6,13.6
			c0,7.7-2.6,13.7-7.9,18.2c-5.2,4.4-12.6,6.7-21.9,6.7h-14.1V871.8z M215.8,858.6h14.4c4.3,0,7.5-1,9.8-3.1s3.4-4.9,3.4-8.6
			c0-3.9-1.1-6.9-3.4-9.3c-2.3-2.4-5.4-3.6-9.4-3.6h-14.9v24.6H215.8z"/>
		<path d="M318.2,865.4h-31.1v21h36.4v13.1h-52.7v-78.6h52.6v13.2H287v18.7h31.1v12.6H318.2z"/>
		<path d="M394.9,873.3c-0.6,8.5-3.7,15.1-9.4,20c-5.7,4.9-13.1,7.3-22.3,7.3c-10.1,0-18.1-3.4-23.7-10.2
			c-5.8-6.8-8.6-16.1-8.6-27.9v-4.8c0-7.6,1.4-14.2,4-20c2.6-5.8,6.5-10.2,11.5-13.3c5-3.1,10.7-4.7,17.3-4.7
			c9.1,0,16.3,2.4,21.9,7.3c5.6,4.9,8.7,11.7,9.7,20.4h-16.2c-0.3-5.1-1.8-8.7-4.2-11c-2.4-2.3-6.1-3.4-11.1-3.4
			c-5.4,0-9.4,1.9-12.1,5.8c-2.7,3.9-4.1,9.9-4.1,18.1v5.9c0,8.5,1.2,14.8,3.9,18.6c2.6,4,6.6,5.9,12.1,5.9c5,0,8.7-1.1,11.2-3.4
			c2.5-2.3,3.9-5.8,4.2-10.6L394.9,873.3L394.9,873.3z"/>
		<path d="M463.1,834H439v65.5h-16.2V834h-23.7v-13.2h64V834z"/>
		<path d="M489.6,899.5h-16.2v-78.6h16.2V899.5z"/>
		<path d="M568.6,899.5h-16.2l-31.6-51.8v51.8h-16.2v-78.6h16.2l31.6,51.9v-51.9h16.2V899.5z"/>
		<path d="M644.9,889.5c-3,3.5-7,6.2-12.4,8.2c-5.3,1.9-11.2,2.8-17.7,2.8c-6.8,0-12.7-1.5-17.9-4.4c-5.1-3-9.1-7.3-11.9-12.9
			c-2.8-5.7-4.2-12.3-4.3-19.9V858c0-7.8,1.4-14.6,4-20.4c2.6-5.8,6.5-10.1,11.5-13.2c5-3.1,10.8-4.5,17.5-4.5
			c9.3,0,16.6,2.3,21.9,6.7c5.2,4.4,8.4,10.9,9.3,19.4H629c-0.7-4.5-2.3-7.8-4.8-9.9s-5.9-3.2-10.2-3.2c-5.6,0-9.7,2-12.6,6.2
			c-2.8,4.1-4.3,10.3-4.4,18.5v5c0,8.3,1.6,14.4,4.7,18.7c3.2,4.2,7.7,6.4,13.7,6.4c6.1,0,10.4-1.2,13.1-3.9v-13.5h-14.8v-11.9h30.9
			v31.1H644.9z"/>
	</g>
	<g>
		<path d="M94.4,955.8l16.3-35.4h17.7l-25.8,50.1V999H86.1v-28.5l-25.8-50.1h17.8L94.4,955.8z"/>
		<path d="M198.6,961.5c0,7.7-1.4,14.5-4.1,20.3c-2.7,5.8-6.7,10.3-11.7,13.5c-5.1,3.2-10.9,4.8-17.5,4.8c-6.5,0-12.4-1.6-17.5-4.7
			c-5.1-3.2-9.1-7.6-11.9-13.4c-2.8-5.8-4.2-12.5-4.3-20.1v-3.9c0-7.7,1.4-14.5,4.2-20.4c2.8-5.9,6.7-10.4,11.8-13.5
			c5.1-3.2,10.9-4.8,17.5-4.8c6.6,0,12.4,1.6,17.5,4.8c5.1,3.2,9.1,7.7,11.8,13.5c2.8,5.9,4.2,12.7,4.2,20.4L198.6,961.5
			L198.6,961.5z M182.2,957.9c0-8.3-1.5-14.5-4.4-18.7c-3-4.3-7.2-6.5-12.6-6.5c-5.4,0-9.7,2.2-12.6,6.4c-3,4.2-4.4,10.4-4.4,18.6
			v3.9c0,8.1,1.5,14.3,4.4,18.7c3,4.4,7.2,6.6,12.7,6.6c5.4,0,9.7-2.2,12.5-6.4s4.4-10.4,4.4-18.6L182.2,957.9L182.2,957.9z"/>
		<path d="M269.9,920.4v51.8c0,8.6-2.7,15.4-8.1,20.4c-5.3,5-12.7,7.5-22,7.5c-9.2,0-16.5-2.4-21.9-7.3c-5.4-4.9-8.2-11.6-8.3-20
			v-52.3h16.2v51.9c0,5.1,1.2,8.9,3.7,11.2c2.5,2.4,5.9,3.5,10.2,3.5c9.1,0,13.7-4.8,13.9-14.3v-52.3h16.2V920.4z"/>
	</g>
</g>
</svg>
